<svg enable-background="new 0 0 723.2 560.4" viewBox="0 0 723.2 560.4" xml:space="preserve" xmlns="http://www.w3.org/2000/svg"><path clip-rule="evenodd" d="m72.2 60.3v438.3c.4 0 1-.1 1.6-.5 1.8-1.1 1.8-3.8 2.4-7 .4-2.2 1.4-4.3 2-6.5 2.3-8 8.2-25.4 11.1-33.8 4.1-11.9 5.2-14.9 9-26.4 4.2-12.6 6.9-21.1 8.7-26.5 5.4-16.7 9.7-28.8 17.6-51 19.4-54.4 41.2-111.8 41.4-112.2 2.7-8.1 6.7-19.5 11.9-33.3 1.8-4.7 5.2-13.9 17.3-44 5.8-14.5 11.7-29.2 20-49.4 5.7-13.9 12.4-29.9 19.9-47.7-54.2 0-108.5 0-162.9 0z" fill="#f79d92" fill-rule="evenodd"/><path clip-rule="evenodd" d="m206.8 478.4c38-74.1 92.8-171.2 135.8-240.6 38.7-62.5 67.5-107.1 101-156.4 8.8-13 11.8-16.8 11.9-15.6.4 2.8 1.6 1.8 1.6-1.3v-3h46.4c25.5 0 47 .2 47.6.5.8.3 1.2 1.4 1.2 3 0 1.4.3 2.5.8 2.5s.8-1.4.8-3v-3h46.5c43 0 46.4.1 46 1.2-.3.8-.2 1.1.3.8 1.5-.9 1.7 5 1.7 42.4v37.3h-3c-3.8 0-3.9 1.3-.2 1.6l2.8.2.2 41.4.2 41.4h-3c-1.7 0-3 .3-3 .8s1.3.8 3 .8h3v41.6 41.6h-3c-1.7 0-3 .3-3 .8s1.3.8 3 .8h3v40.9 40.9h-3c-1.7 0-3 .3-3 .8s1.3.8 3 .8h3v41.6 41.6h-3c-1.7 0-3 .3-3 .8 0 .4 1.3.8 3 .8h3v3.9c0 2.2-.2 5.7-.5 7.9l-.5 3.9h-46.8-46.8v-3c0-1.6-.3-3-.8-3-.4 0-.8 1.4-.8 3v3h-47.6-47.6v-3c0-1.6-.3-3-.8-3s-.8 1.4-.8 3v3h-46.9-46.9v-3c0-1.6-.3-3-.8-3s-.8 1.4-.8 3v3h-29.3-29.3l1.2-1.9c.7-1 .9-1.9.5-1.9s-1.2.8-1.7 1.9l-1 1.9h-17.9-17.9v-3c0-1.6-.3-3-.8-3s-.8 1.4-.8 3v3h-7.2c-7 0-7.1 0-6.3-1.6 1.2-2.3.4-2.6-1.1-.3l-1.2 1.9h-25.5-25.5zm100.3 11.2c0-.5-.7 0-1.5 1-1.9 2.5-1.9 3.9 0 1.6.8-.9 1.5-2.1 1.5-2.6zm-53.3-.1c0-.4-.5-.1-1.1.7s-1.1 1.8-1.1 2.2.5.1 1.1-.7c.6-.7 1.1-1.7 1.1-2.2zm3-4.9c0-.8-.3-.8-1.1.3-.6.8-1.1 2-1.1 2.6 0 .8.3.8 1.1-.3.6-.8 1.1-2 1.1-2.6zm53.7.2c-.5-.5-2.6 2.2-2.6 3.2 0 .4.7-.1 1.5-1 .8-1 1.3-2 1.1-2.2zm3.3-4.6c0-.9-.4-.7-1.5.7-1.9 2.4-1.9 3.6 0 1.9.9-.8 1.5-1.9 1.5-2.6zm-54.3.7c1.3-2.5.8-3-.8-.9-1 1.3-1.4 3.2-.7 3.2.1-.1.8-1.1 1.5-2.3zm58.1-6.3c0-.5-.7-.1-1.5.9s-1.5 2.2-1.5 2.6c0 .5.7.1 1.5-.9.8-.9 1.5-2.1 1.5-2.6zm-54.1-.8c0-.4-.7 0-1.5 1s-1.5 2.2-1.5 2.6c0 .5.7 0 1.5-1 .9-1.1 1.5-2.2 1.5-2.6zm56.6-2.3c.7-1 .9-1.9.5-1.9s-1.2.8-1.9 1.9c-.7 1-.9 1.9-.5 1.9s1.3-.9 1.9-1.9zm-53.5-2.9c0-.5-.7-.1-1.5.9s-1.5 2.2-1.5 2.6c0 .5.7.1 1.5-.9.8-.9 1.5-2.1 1.5-2.6zm57.7-3.8c0-.4-.7 0-1.5 1s-1.5 2.2-1.5 2.6c0 .5.7 0 1.5-1 .8-1.1 1.5-2.2 1.5-2.6zm-55.6.6c1.3-2.8.4-3.1-1-.3-.7 1.3-.9 2.3-.6 2.3s1.1-.9 1.6-2zm58.2-3.6c.7-1 .9-1.9.5-1.9s-1.2.8-1.9 1.9c-.7 1-.9 1.9-.5 1.9s1.2-.9 1.9-1.9zm-55.4-1c1.2-1.6 1.3-2.7.3-2.1s-2.5 3.4-1.8 3.4c.3 0 1-.6 1.5-1.3zm59.5-5.8c0-.4-.7 0-1.5 1s-1.5 2.2-1.5 2.6c0 .5.7 0 1.5-1 .9-1 1.5-2.2 1.5-2.6zm-56.1.3c1.2-2.3.4-2.6-1.1-.3-.7 1-.9 1.9-.5 1.9s1.1-.7 1.6-1.6zm59.9-5.5c0-.4-.7 0-1.5 1s-1.5 2.2-1.5 2.6c0 .5.7 0 1.5-1 .8-1.1 1.5-2.2 1.5-2.6zm-55.9-1.8c-.5-.5-2.5 2.4-2.6 3.7 0 .6.6.1 1.4-1.1.9-1.3 1.4-2.4 1.2-2.6zm58.5-1.2c.7-1 .9-1.9.5-1.9s-1.2.8-1.9 1.9-.9 1.9-.5 1.9 1.2-.9 1.9-1.9zm-55.1-3.8c0-.4-.7 0-1.5 1s-1.5 2.2-1.5 2.6c0 .5.7 0 1.5-1s1.5-2.2 1.5-2.6zm59.3-2.9c0-.5-.7-.1-1.5.9s-1.5 2.2-1.5 2.6c0 .5.7.1 1.5-.9.8-.9 1.5-2.1 1.5-2.6zm-56.3-2.2c0-.5-.7 0-1.5 1-1.9 2.5-1.9 3.9 0 1.6.9-1 1.5-2.2 1.5-2.6zm58.8-.9c.7-1 .9-1.9.5-1.9s-1.2.8-1.9 1.9c-.7 1-.9 1.9-.5 1.9s1.3-.9 1.9-1.9zm-56.5-2.2c1.4-2.7.5-3-1-.4-.7 1.2-1 2.2-.6 2.2s1-.8 1.6-1.8zm60.7-4.4c0-.5-.7 0-1.5 1-1.9 2.5-1.9 3.9 0 1.6.9-1 1.5-2.2 1.5-2.6zm-56.7-2.8c-.5-.5-2.5 2.2-2.5 3.3 0 .4.7 0 1.4-1.1.8-.9 1.3-1.9 1.1-2.2zm60.1-2.1c-.5-.5-2.6 2.2-2.6 3.2 0 .4.7-.1 1.5-1s1.3-2 1.1-2.2zm-57.5-1.2c1-2.2.4-2.5-1.1-.6-1.2 1.5-1.3 2.4-.4 2.4.4 0 1-.8 1.5-1.8zm61.3-4c-.5-.5-2.6 2.2-2.6 3.2 0 .4.7-.1 1.5-1s1.3-2 1.1-2.2zm-58.2-.9c1-1.8 1-2.5 0-1.9-1.2.7-2.4 3.4-1.6 3.4.5 0 1.2-.7 1.6-1.5zm60.5-1.3c1.2-1.6 1.3-2.7.3-2.1s-2.5 3.4-1.8 3.4c.3 0 .9-.6 1.5-1.3zm-56.4-6.1c-.5-.5-2.5 2.4-2.6 3.7 0 .6.6.1 1.4-1.1s1.4-2.4 1.2-2.6zm61.2-1.1c0-.5-.7-.1-1.5.9s-1.5 2.2-1.5 2.6c0 .5.7.1 1.5-.9s1.5-2.2 1.5-2.6zm-57.8-3.9c0-.4-.7 0-1.5 1s-1.5 2.2-1.5 2.6c0 .5.7 0 1.5-1s1.5-2.2 1.5-2.6zm61.5-1.5c0-.4-.7 0-1.5 1s-1.5 2.2-1.5 2.6c0 .5.7 0 1.5-1s1.5-2.2 1.5-2.6zm-59.2-1.5c.6-1 .8-2.1.6-2.3s-1 .6-1.6 1.9-.9 2.3-.6 2.3 1-.9 1.6-1.9zm62.1-1.7c1.5-2.3.1-2-1.6.4-.9 1.2-1.1 1.8-.4 1.6.4-.2 1.4-1.1 2-2zm-58.8-3.5c.7-1 .9-1.9.5-1.9s-1.2.8-1.9 1.9-.9 1.9-.5 1.9 1.2-.9 1.9-1.9zm62.7-2.2c0-.4-.7-.1-1.5.6s-1.5 1.7-1.5 2.1.7.1 1.5-.6 1.5-1.6 1.5-2.1zm-59.6-2.7c.6-1.2.9-2.2.5-2.2-.6 0-2.4 3.2-2.4 4.2 0 .8.8 0 1.9-2zm62.3-.6c1.2-1.6 1.3-2.7.3-2.1s-2.5 3.4-1.8 3.4c.3 0 .9-.6 1.5-1.3zm-58.2-6.4c0-.5-.7 0-1.5 1-1.9 2.5-1.9 3.9 0 1.6.8-1 1.5-2.2 1.5-2.6zm63-.8c0-.5-.7 0-1.5 1-1.9 2.5-1.9 3.9 0 1.6.8-.9 1.5-2.1 1.5-2.6zm-60.7-2c1.2-2.3.4-2.6-1.1-.3-.7 1-.9 1.9-.5 1.9s1.1-.8 1.6-1.6zm64.1-2.8c-.5-.5-2.6 2.2-2.6 3.2 0 .4.7-.1 1.5-1s1.3-2 1.1-2.2zm-60-4.5c-.5-.5-2.6 2.2-2.6 3.2 0 .4.7-.1 1.5-1s1.3-2 1.1-2.2zm62.9 1.6c.9-1.2 1.1-1.8.4-1.6-1.2.4-3.4 3.6-2.5 3.6.4-.1 1.3-.9 2.1-2zm4.2-6.5c0-.5-.7 0-1.5 1-1.9 2.5-1.9 3.9 0 1.6.8-1 1.5-2.2 1.5-2.6zm-64.5 1.7c1.2-2.3.4-2.6-1.1-.3-.7 1-.9 1.9-.5 1.9s1.2-.8 1.6-1.6zm4.1-7.4c-.5-.5-2.5 2.4-2.6 3.7 0 .6.6.1 1.4-1.1s1.4-2.4 1.2-2.6zm63.9.9c-.3-.3-1 .1-1.6.9-1.7 2.2-1.3 3.1.5 1.3.9-.9 1.4-1.9 1.1-2.2zm4-5.1c0-.3-.7.1-1.5.8s-1.5 1.9-1.5 2.5c0 .7.5.4 1.5-.8.8-1.1 1.5-2.2 1.5-2.5zm-64.5-.6c0-.5-.7 0-1.5 1-1.9 2.5-1.9 3.9 0 1.6.8-1 1.5-2.2 1.5-2.6zm67-2.4c.7-1 .9-1.9.5-1.9s-1.2.8-1.9 1.9c-.7 1-.9 1.9-.5 1.9s1.3-.9 1.9-1.9zm-64.5-.7c.7-1 .9-1.9.5-1.9s-1.2.8-1.9 1.9c-.7 1-.9 1.9-.5 1.9s1.3-.9 1.9-1.9zm68.9-5.2c.7-1.4.6-1.4-1.2.3-1.1 1-2 2.1-2 2.5 0 1 2.2-1 3.2-2.8zm-64.7-1.6c0-.4-.7 0-1.5 1s-1.5 2.2-1.5 2.6c0 .5.7 0 1.5-1s1.5-2.2 1.5-2.6zm67.8-2.2c.7-1 .9-1.9.5-1.9s-1.2.8-1.9 1.9-.9 1.9-.5 1.9 1.3-.9 1.9-1.9zm-65.5-.8c1.4-2.7.5-3-1-.4-.7 1.2-1 2.2-.6 2.2s1-.8 1.6-1.8zm69.7-5.1c0-.4-.7-.1-1.5.6s-1.5 1.7-1.5 2.1.7.1 1.5-.6 1.5-1.7 1.5-2.1zm-65.6-1.9c-.5-.5-2.6 2.2-2.6 3.2 0 .4.7-.1 1.5-1s1.3-2 1.1-2.2zm69.3-3.5c0-.4-.7 0-1.5 1s-1.5 2.2-1.5 2.6c0 .5.7 0 1.5-1 .9-1 1.5-2.2 1.5-2.6zm-66.6.3c1.2-2.3.4-2.6-1.1-.3-.7 1-.9 1.9-.5 1.9s1.1-.7 1.6-1.6zm70.4-4.7c0-.4-.7-.1-1.5.6s-1.5 1.7-1.5 2.1.7.1 1.5-.6 1.5-1.6 1.5-2.1zm-66-2.3c0-.4-.7 0-1.5 1s-1.5 2.2-1.5 2.6c0 .5.7 0 1.5-1 .8-1.1 1.5-2.2 1.5-2.6zm69.7-3c0-.4-.7 0-1.5 1s-1.5 2.2-1.5 2.6c0 .5.7 0 1.5-1 .9-1.1 1.5-2.2 1.5-2.6zm-67.4 0c1.4-2.7.5-3-1-.4-.7 1.2-1 2.2-.6 2.2s1-.8 1.6-1.8zm71.2-4.4c0-.4-.7-.1-1.5.6s-1.5 1.7-1.5 2.1.7.1 1.5-.6 1.5-1.7 1.5-2.1zm-67.1-2.6c-.5-.5-2.6 2.2-2.6 3.2 0 .4.7-.1 1.5-1s1.3-2 1.1-2.2zm69.7-.5c.7-1 .9-1.9.5-1.9s-1.2.8-1.9 1.9c-.7 1-.9 1.9-.5 1.9s1.2-.9 1.9-1.9zm-66.3-4.4c0-.5-.7 0-1.5 1-1.9 2.5-1.9 3.9 0 1.6.8-1 1.5-2.2 1.5-2.6zm71.2-2.3c0-.4-.7-.1-1.5.6s-1.5 1.7-1.5 2.1.7.1 1.5-.6 1.5-1.6 1.5-2.1zm-67.5-3c0-.5-.7-.1-1.5.9s-1.5 2.2-1.5 2.6c0 .5.7.1 1.5-.9.9-.9 1.5-2.1 1.5-2.6zm70.1-.1c.7-1 .9-1.9.5-1.9s-1.2.8-1.9 1.9c-.7 1-.9 1.9-.5 1.9s1.2-.9 1.9-1.9zm-67.8-2.7c1.2-2.3.4-2.6-1.1-.3-.7 1-.9 1.9-.5 1.9s1.2-.7 1.6-1.6zm71.5-1.9c.9-1.2 1.1-1.8.4-1.6-1.2.4-3.4 3.6-2.5 3.6.4-.1 1.3-.9 2.1-2zm-67.1-5.1c0-.4-.7 0-1.5 1s-1.5 2.2-1.5 2.6c0 .5.7 0 1.5-1 .9-1.1 1.5-2.2 1.5-2.6zm71.2-.3c1.5-2.3.1-2-1.6.4-.9 1.2-1.1 1.8-.4 1.6.4-.2 1.4-1.1 2-2zm-69.2-2.2c1.2-1.6 1.3-2.7.3-2.1s-2.5 3.4-1.8 3.4c.3 0 1-.6 1.5-1.3zm72.6-2c.7-1 .9-1.9.5-1.9s-1.2.8-1.9 1.9c-.7 1-.9 1.9-.5 1.9s1.3-.9 1.9-1.9zm-67.8-5.3c0-.4-.7 0-1.5 1s-1.5 2.2-1.5 2.6c0 .5.7 0 1.5-1s1.5-2.2 1.5-2.6zm72.4-1c-.5-.5-3.4 2.2-3.4 3.1 0 .4.8 0 1.9-1 1-.9 1.7-1.9 1.5-2.1zm-70.1-1.8c1.7-2.1 1.9-3.4.3-2-1.3 1.1-2.9 3.7-2.2 3.7.3 0 1.1-.8 1.9-1.7zm73.9-3.4c-.5-.5-3.4 2.9-3.4 3.9 0 .4.8-.2 1.9-1.4s1.7-2.3 1.5-2.5zm-70.5-1.5c1.2-1.6 1.3-2.7.3-2.1s-2.5 3.4-1.8 3.4c.3 0 1-.6 1.5-1.3zm73.4-1.3c.7-1 .9-1.9.5-1.9s-1.2.8-1.9 1.9c-.7 1-.9 1.9-.5 1.9s1.2-.9 1.9-1.9zm-68.6-5.9c0-.4-.7-.1-1.5.7-.8.7-1.5 1.9-1.5 2.6 0 .9.4.7 1.5-.7.8-1.1 1.5-2.3 1.5-2.6zm72.3 1.3c.9-1.2 1.1-1.8.4-1.6-1.2.4-3.4 3.6-2.5 3.6.4-.1 1.3-.9 2.1-2zm-70.3-3.8c1.2-1.6 1.3-2.7.3-2.1s-2.5 3.4-1.8 3.4c.3 0 .9-.6 1.5-1.3zm75.3-2.7c0-.4-.8 0-1.9 1-1 1-1.9 2.1-1.9 2.5s.8 0 1.9-1c1-1 1.9-2.1 1.9-2.5zm-71.6-2.6c1.5-2 1.2-2.8-.5-1.3-1.5 1.3-2 2.6-1 2.6.3 0 1-.6 1.5-1.3zm74.1-.5c.7-1 .9-1.9.5-1.9s-1.2.8-1.9 1.9-.9 1.9-.5 1.9 1.3-.9 1.9-1.9zm-70.4-5.1c1.3-2.2 1.3-2.3.1-1.4-1.6 1.3-3 3.8-2.2 3.8.4 0 1.3-1.1 2.1-2.4zm74.2.4c.9-1.2 1.1-1.8.4-1.6-1.2.4-3.4 3.6-2.5 3.6.4 0 1.3-.9 2.1-2zm4.6-6.1c-.5-.5-3.4 2.2-3.4 3.1 0 .4.8 0 1.9-1 1-.9 1.7-1.9 1.5-2.1zm-75.7 1.6c1.2-1.6 1.3-2.7.3-2.1s-2.5 3.4-1.8 3.4c.3 0 .9-.6 1.5-1.3zm4.7-7.3c0-.4-.7 0-1.5 1s-1.5 2.2-1.5 2.6c0 .5.7 0 1.5-1 .9-1.1 1.5-2.2 1.5-2.6zm74 2.6c2-2.2.9-2.6-1.1-.4-1 1-1.4 1.9-1 1.9s1.3-.7 2.1-1.5zm3.9-5.1c1.5-2.3.1-2-1.6.4-.9 1.2-1.1 1.8-.4 1.6.5-.2 1.4-1.1 2-2zm-75.3-.5c.7-1 .9-1.9.5-1.9s-1.2.8-1.9 1.9c-.7 1-.9 1.9-.5 1.9s1.3-.9 1.9-1.9zm78.8-3.8c.7-1 .9-1.9.5-1.9s-1.2.8-1.9 1.9c-.7 1-.9 1.9-.5 1.9s1.2-.9 1.9-1.9zm-74.6-2.9c0-.5-.7-.1-1.5.9s-1.5 2.2-1.5 2.6.7.1 1.5-.9c.9-.9 1.5-2.1 1.5-2.6zm79.5-3.8c0-.4-.7 0-1.5 1s-1.5 2.2-1.5 2.6c0 .5.7 0 1.5-1 .8-1.1 1.5-2.2 1.5-2.6zm-75.7-1.4c0-.5-.7-.1-1.5.9s-1.5 2.2-1.5 2.6.7.1 1.5-.9 1.5-2.2 1.5-2.6zm79.4-3.1c0-.4-.7 0-1.5 1s-1.5 2.2-1.5 2.6c0 .5.7 0 1.5-1 .9-1.1 1.5-2.2 1.5-2.6zm-76.6-.3c.6-.9.8-1.6.3-1.6-.4 0-1.3.9-2 2-.8 1.3-1 1.9-.3 1.6.5-.2 1.4-1.1 2-2zm80.4-4.1c0-.4-.7-.1-1.5.6s-1.5 1.7-1.5 2.1.7.1 1.5-.6 1.5-1.7 1.5-2.1zm-76.5-1.9c0-.7-.5-.4-1.5.8-.8 1-1.5 2.2-1.5 2.5s.7-.1 1.5-.8c.9-.7 1.5-1.9 1.5-2.5zm80.3-2.6c0-.4-.7-.1-1.5.6s-1.5 1.7-1.5 2.1.7.1 1.5-.6 1.5-1.7 1.5-2.1zm-76.5-2.3c0-.4-.7-.1-1.5.6s-1.5 1.7-1.5 2.1.7.1 1.5-.6 1.5-1.6 1.5-2.1zm80.6-2.6c-.5-.5-3.4 2.2-3.4 3.1 0 .4.8 0 1.9-1 1-.9 1.7-1.9 1.5-2.1zm-76.9-2.7c0-.4-.7 0-1.5 1s-1.5 2.2-1.5 2.6c0 .5.7 0 1.5-1 .8-1.1 1.5-2.2 1.5-2.6zm80.7-1.8c-.5-.5-3.4 2.2-3.4 3.1 0 .4.8 0 1.9-1 1-.9 1.7-1.9 1.5-2.1zm-78.1-1.2c.7-1 .9-1.9.5-1.9s-1.2.8-1.9 1.9c-.7 1-.9 1.9-.5 1.9s1.2-.9 1.9-1.9zm81.1-1.9c2-2.2.9-2.6-1.1-.4-1 1-1.4 1.9-1 1.9s1.3-.7 2.1-1.5zm-76.9-4.8c0-.5-.7 0-1.5 1-1.9 2.5-1.9 3.9 0 1.6.8-.9 1.5-2.1 1.5-2.6zm80.6.3c2-2.2.9-2.6-1.1-.4-1 1-1.4 1.9-1 1.9s1.4-.7 2.1-1.5zm-76.9-4.8c0-.4-.7-.1-1.5.6s-1.5 1.7-1.5 2.1.7.1 1.5-.6 1.5-1.6 1.5-2.1zm81.8-1.5c0-.4-.7-.1-1.5.6s-1.5 1.7-1.5 2.1.7.1 1.5-.6 1.5-1.6 1.5-2.1zm-78-3.8c0-.4-.7-.1-1.5.7-.8.7-1.5 1.9-1.5 2.6 0 .9.4.7 1.5-.7.8-1.1 1.5-2.2 1.5-2.6zm81.7-.7c0-.4-.7-.1-1.5.6s-1.5 1.7-1.5 2.1.7.1 1.5-.6c.9-.7 1.5-1.6 1.5-2.1zm-79.2-2.3c.7-1 .9-1.9.5-1.9s-1.2.8-1.9 1.9c-.7 1-.9 1.9-.5 1.9s1.3-.9 1.9-1.9zm83-2.2c0-.4-.7-.1-1.5.6s-1.5 1.7-1.5 2.1.7.1 1.5-.6 1.5-1.6 1.5-2.1zm-78.8-4.1c0-.7-.5-.4-1.5.8-.8 1-1.5 2.2-1.5 2.5s.7-.1 1.5-.8c.9-.7 1.5-1.9 1.5-2.5zm83.3-1.1c0-.4-.8 0-1.9 1-1 1-1.9 2.1-1.9 2.5s.8 0 1.9-1c1-1 1.9-2.1 1.9-2.5zm-79.6-3.9c0-.4-.7 0-1.5 1s-1.5 2.2-1.5 2.6c0 .5.7 0 1.5-1 .9-1 1.5-2.2 1.5-2.6zm82.2 1.1c2-2.2.9-2.6-1.1-.4-1 1-1.4 1.9-1 1.9s1.4-.7 2.1-1.5zm-78.4-6.2c0-.5-.7-.1-1.5.9s-1.5 2.2-1.5 2.6c0 .5.7.1 1.5-.9.9-1 1.5-2.2 1.5-2.6zm82.2 1.7c2-2.2.9-2.6-1.1-.4-1 1-1.4 1.9-1 1.9s1.3-.7 2.1-1.5zm-78.8-6.6c-.5-.5-2.6 2.2-2.6 3.2 0 .4.7-.1 1.5-1 .8-1 1.3-2 1.1-2.2zm83.6.4c0-.4-.7-.1-1.5.6s-1.5 1.7-1.5 2.1.7.1 1.5-.6c.9-.7 1.5-1.7 1.5-2.1zm-80.7-3.3c.9-1.2 1.1-1.8.4-1.6-1.2.4-3.4 3.6-2.5 3.6.4 0 1.3-.9 2.1-2zm84.9-1.6c-.5-.5-3.4 2.2-3.4 3.1 0 .4.8 0 1.9-1 1-.9 1.7-1.9 1.5-2.1zm-80.7-4.9c0-.5-.7 0-1.5 1-1.9 2.5-1.9 3.9 0 1.6.9-.9 1.5-2.1 1.5-2.6zm84.4.4c-.5-.5-3.4 2.2-3.4 3.1 0 .4.8 0 1.9-1 1-.9 1.7-1.9 1.5-2.1zm2.9-2.7c.7-1 .9-1.9.5-1.9s-1.2.8-1.9 1.9-.9 1.9-.5 1.9 1.3-.9 1.9-1.9zm-83.5-2.2c0-.4-.7-.1-1.5.6s-1.5 1.7-1.5 2.1.7.1 1.5-.6 1.5-1.6 1.5-2.1zm88.1-4.1c-.5-.5-2.6 2.2-2.6 3.2 0 .4.7-.1 1.5-1 .8-1 1.3-2 1.1-2.2zm-84.4-1.2c0-.4-.7 0-1.5 1s-1.5 2.2-1.5 2.6c0 .5.7 0 1.5-1 .8-1.1 1.5-2.2 1.5-2.6zm88.5-2.9c0-.4-.7-.1-1.5.6s-1.5 1.7-1.5 2.1.7.1 1.5-.6 1.5-1.7 1.5-2.1zm-85.1-1.9c-.5-.5-2.6 2.2-2.6 3.2 0 .4.7-.1 1.5-1 .8-1 1.3-2 1.1-2.2zm89.6-3.4c0-.4-.8 0-1.9 1-1 1-1.9 2.1-1.9 2.5s.8 0 1.9-1c1.1-.9 1.9-2.1 1.9-2.5zm-86.9.8c1.5-1.8 1.8-2.8.9-2.8-.3 0-1.2 1-1.9 2.2-1.6 2.7-1 3 1 .6zm89.6-3.5c2-2.2.9-2.6-1.1-.4-1 1-1.4 1.9-1 1.9s1.3-.7 2.1-1.5zm-85.3-2.1c.6-.9.8-1.6.3-1.6s-1.3.9-2 2c-.8 1.3-1 1.9-.3 1.6.4-.2 1.4-1.1 2-2zm90.1-4.2c0-.4-.7-.1-1.5.6s-1.5 1.7-1.5 2.1.7.1 1.5-.6 1.5-1.6 1.5-2.1zm-86.7-.2c.9-1.2 1.1-1.8.4-1.6-1.2.4-3.4 3.6-2.5 3.6.4-.1 1.3-.9 2.1-2zm90-2.9c.7-1 .9-1.9.5-1.9s-1.2.8-1.9 1.9-.9 1.9-.5 1.9 1.3-.9 1.9-1.9zm-85.8-3.6c0-.5-.7 0-1.5 1-1.9 2.5-1.9 3.9 0 1.6.9-1 1.5-2.2 1.5-2.6zm89.7-.5c2-2.2.9-2.6-1.1-.4-1 1-1.4 1.9-1 1.9s1.3-.7 2.1-1.5zm-87-2.1c1.2-1.6 1.3-2.7.3-2.1s-2.5 3.4-1.8 3.4c.3 0 1-.6 1.5-1.3zm91.8-4.2c0-.4-.7-.1-1.5.6s-1.5 1.7-1.5 2.1.7.1 1.5-.6c.9-.7 1.5-1.6 1.5-2.1zm-87-3c0-.5-.7 0-1.5 1-1.9 2.5-1.9 3.9 0 1.6.9-.9 1.5-2.1 1.5-2.6zm90.3-.2c.9-1.2 1.1-1.8.4-1.6-1.2.4-3.4 3.6-2.5 3.6.4-.1 1.3-.9 2.1-2zm-87.6-2.3c1.2-1.6 1.3-2.7.3-2.1s-2.5 3.4-1.8 3.4c.3 0 1-.6 1.5-1.3zm91.5-1.7c2-2.2.9-2.6-1.1-.4-1 1-1.4 1.9-1 1.9s1.3-.7 2.1-1.5zm-87-5.1c-.5-.5-2.6 2.2-2.6 3.2 0 .4.7-.1 1.5-1 .8-1 1.3-2 1.1-2.2zm91.8-1.2c0-.4-.7-.1-1.5.6s-1.5 1.7-1.5 2.1.7.1 1.5-.6 1.5-1.6 1.5-2.1zm-87.8-3.8c0-.4-.7 0-1.5 1s-1.5 2.2-1.5 2.6c0 .5.7 0 1.5-1 .9-1.1 1.5-2.2 1.5-2.6zm91.1.6c.9-1.2 1.1-1.8.4-1.6-1.2.4-3.4 3.6-2.5 3.6.4-.1 1.3-.9 2.1-2zm-87.3-5c0-.4-.7-.1-1.5.6s-1.5 1.7-1.5 2.1.7.1 1.5-.6c.9-.7 1.5-1.7 1.5-2.1zm91.4.4c1.5-2.2.8-2.1-1.4.3-1 1.1-1.3 1.8-.8 1.6.6-.1 1.6-1 2.2-1.9zm-88.5-3.8c1.5-2.3.1-2-1.6.4-.9 1.2-1.1 1.8-.4 1.6.4-.2 1.4-1.1 2-2zm93.1-1.9c0-.4-.7-.1-1.5.6s-1.5 1.7-1.5 2.1.7.1 1.5-.6c.9-.7 1.5-1.6 1.5-2.1zm-88.5-4.6c0-.3-.7.1-1.5.8s-1.5 1.9-1.5 2.5c0 .7.5.4 1.5-.8.9-1.1 1.5-2.2 1.5-2.5zm92.7-.2c-.5-.5-3.4 2.2-3.4 3.1 0 .4.8 0 1.9-1 1-1 1.7-1.9 1.5-2.1zm-90-2.4c2-2.2.9-2.6-1.1-.4-1 1-1.4 1.9-1 1.9s1.3-.7 2.1-1.5zm93 0c2-2.2.9-2.6-1.1-.4-1 1-1.4 1.9-1 1.9s1.3-.7 2.1-1.5zm-89.4-4.9c.7-1 .9-1.9.5-1.9s-1.2.8-1.9 1.9c-.7 1-.9 1.9-.5 1.9s1.3-.9 1.9-1.9zm94.6-1.7c-.5-.5-3.4 2.2-3.4 3.1 0 .4.8 0 1.9-1 1-1 1.7-1.9 1.5-2.1zm-89.6-5.1c0-.3-.7.1-1.5.8s-1.5 1.9-1.5 2.5c0 .7.5.4 1.5-.8.8-1.1 1.5-2.2 1.5-2.5zm92.5 2.3c.7-1 .9-1.9.5-1.9s-1.2.8-1.9 1.9c-.7 1-.9 1.9-.5 1.9s1.3-.9 1.9-1.9zm3.9-4.1c2-2.2.9-2.6-1.1-.4-1 1-1.4 1.9-1 1.9s1.3-.7 2.1-1.5zm-93.8-.8c2-2.2.9-2.6-1.1-.4-1 1-1.4 1.9-1 1.9s1.4-.7 2.1-1.5zm98.2-4.2c.9-1.2 1.1-1.8.4-1.6-1.2.4-3.4 3.6-2.5 3.6.4-.1 1.3-.9 2.1-2zm-94.5-.6c.7-1 .9-1.9.5-1.9s-1.2.8-1.9 1.9c-.7 1-.9 1.9-.5 1.9.3-.1 1.2-.9 1.9-1.9zm98.3-3.4c2-2.2.9-2.6-1.1-.4-1 1-1.4 1.9-1 1.9s1.4-.7 2.1-1.5zm-94.8-1c1.7-2.1 1.9-3.4.3-2-1.3 1.1-2.9 3.7-2.2 3.7.3 0 1.1-.7 1.9-1.7z" fill="#fff" fill-opacity=".5025" fill-rule="evenodd"/><path d="m72.2 481.6h576.6" fill="none" stroke="#d9d9d9" stroke-dasharray="1 2" stroke-linecap="round" stroke-linejoin="round"/><path d="m72.2 481.6h6" fill="none" stroke="#000" stroke-linecap="round" stroke-linejoin="round"/><path d="m648.8 481.6h-6.1" fill="none" stroke="#000" stroke-linecap="round" stroke-linejoin="round"/><text font-family="'ArialMT'" font-size="9.0562" transform="translate(42.5198 485.5767)"> 1.5</text><path d="m72.2 397h576.6" fill="none" stroke="#d9d9d9" stroke-dasharray="1 2" stroke-linecap="round" stroke-linejoin="round"/><path d="m72.2 397h6" fill="none" stroke="#000" stroke-linecap="round" stroke-linejoin="round"/><path d="m648.8 397h-6.1" fill="none" stroke="#000" stroke-linecap="round" stroke-linejoin="round"/><text font-family="'ArialMT'" font-size="9.0562" transform="translate(42.5198 402.0587)"> 1.6</text><path d="m72.2 313.5h576.6" fill="none" stroke="#d9d9d9" stroke-dasharray="1 2" stroke-linecap="round" stroke-linejoin="round"/><path d="m72.2 313.5h6" fill="none" stroke="#000" stroke-linecap="round" stroke-linejoin="round"/><path d="m648.8 313.5h-6.1" fill="none" stroke="#000" stroke-linecap="round" stroke-linejoin="round"/><text font-family="'ArialMT'" font-size="9.0562" transform="translate(42.5198 317.5337)"> 1.7</text><path d="m72.2 229h576.6" fill="none" stroke="#d9d9d9" stroke-dasharray="1 2" stroke-linecap="round" stroke-linejoin="round"/><path d="m72.2 229h6" fill="none" stroke="#000" stroke-linecap="round" stroke-linejoin="round"/><path d="m648.8 229h-6.1" fill="none" stroke="#000" stroke-linecap="round" stroke-linejoin="round"/><text font-family="'ArialMT'" font-size="9.0562" transform="translate(42.5198 233.0087)"> 1.8</text><path d="m72.2 144.5h576.6" fill="none" stroke="#d9d9d9" stroke-dasharray="1 2" stroke-linecap="round" stroke-linejoin="round"/><path d="m72.2 144.5h6" fill="none" stroke="#000" stroke-linecap="round" stroke-linejoin="round"/><path d="m648.8 144.5h-6.1" fill="none" stroke="#000" stroke-linecap="round" stroke-linejoin="round"/><text font-family="'ArialMT'" font-size="9.0562" transform="translate(42.5198 149.4897)"> 1.9</text><path d="m72.2 60.9h576.6" fill="none" stroke="#d9d9d9" stroke-dasharray="1 2" stroke-linecap="round" stroke-linejoin="round"/><path d="m72.2 60.9h6" fill="none" stroke="#000" stroke-linecap="round" stroke-linejoin="round"/><path d="m648.8 60.9h-6.1" fill="none" stroke="#000" stroke-linecap="round" stroke-linejoin="round"/><text font-family="'ArialMT'" font-size="9.0562" transform="translate(54.5948 64.9646)"> 2</text><path d="m72.2 498.7v-437.8" fill="none" stroke="#d9d9d9" stroke-dasharray="1 2" stroke-linecap="round" stroke-linejoin="round"/><path d="m72.2 498.7v-6.1" fill="none" stroke="#000" stroke-linecap="round" stroke-linejoin="round"/><path d="m72.2 60.9v6.1" fill="none" stroke="#000" stroke-linecap="round" stroke-linejoin="round"/><text font-family="'ArialMT'" font-size="9.0562" transform="translate(63.1479 517.7767)"> 40</text><path d="m168.8 498.7v-437.8" fill="none" stroke="#d9d9d9" stroke-dasharray="1 2" stroke-linecap="round" stroke-linejoin="round"/><path d="m168.8 498.7v-6.1" fill="none" stroke="#000" stroke-linecap="round" stroke-linejoin="round"/><path d="m168.8 60.9v6.1" fill="none" stroke="#000" stroke-linecap="round" stroke-linejoin="round"/><text font-family="'ArialMT'" font-size="9.0562" transform="translate(158.7418 517.7767)"> 60</text><path d="m264.4 498.7v-437.8" fill="none" stroke="#d9d9d9" stroke-dasharray="1 2" stroke-linecap="round" stroke-linejoin="round"/><path d="m264.4 498.7v-6.1" fill="none" stroke="#000" stroke-linecap="round" stroke-linejoin="round"/><path d="m264.4 60.9v6.1" fill="none" stroke="#000" stroke-linecap="round" stroke-linejoin="round"/><text font-family="'ArialMT'" font-size="9.0562" transform="translate(255.3418 517.7767)"> 80</text><path d="m361 498.7v-437.8" fill="none" stroke="#d9d9d9" stroke-dasharray="1 2" stroke-linecap="round" stroke-linejoin="round"/><path d="m361 498.7v-6.1" fill="none" stroke="#000" stroke-linecap="round" stroke-linejoin="round"/><path d="m361 60.9v6.1" fill="none" stroke="#000" stroke-linecap="round" stroke-linejoin="round"/><text font-family="'ArialMT'" font-size="9.0562" transform="translate(346.9108 517.7767)"> 100</text><path d="m456.6 498.7v-437.8" fill="none" stroke="#d9d9d9" stroke-dasharray="1 2" stroke-linecap="round" stroke-linejoin="round"/><path d="m456.6 498.7v-6.1" fill="none" stroke="#000" stroke-linecap="round" stroke-linejoin="round"/><path d="m456.6 60.9v6.1" fill="none" stroke="#000" stroke-linecap="round" stroke-linejoin="round"/><text font-family="'ArialMT'" font-size="9.0562" transform="translate(443.5108 517.7767)"> 120</text><path d="m553.2 498.7v-437.8" fill="none" stroke="#d9d9d9" stroke-dasharray="1 2" stroke-linecap="round" stroke-linejoin="round"/><path d="m553.2 498.7v-6.1" fill="none" stroke="#000" stroke-linecap="round" stroke-linejoin="round"/><path d="m553.2 60.9v6.1" fill="none" stroke="#000" stroke-linecap="round" stroke-linejoin="round"/><text font-family="'ArialMT'" font-size="9.0562" transform="translate(539.1038 517.7767)"> 140</text><path d="m648.8 498.7v-437.8" fill="none" stroke="#d9d9d9" stroke-dasharray="1 2" stroke-linecap="round" stroke-linejoin="round"/><path d="m648.8 498.7v-6.1" fill="none" stroke="#000" stroke-linecap="round" stroke-linejoin="round"/><path d="m648.8 60.9v6.1" fill="none" stroke="#000" stroke-linecap="round" stroke-linejoin="round"/><text font-family="'ArialMT'" font-size="9.0562" transform="translate(635.7038 517.7767)"> 160</text><path d="m72.2 60.9v437.8h576.6v-437.8z" fill="none" stroke="#000" stroke-linecap="round" stroke-linejoin="round"/><path clip-rule="evenodd" d="m235.7 60c-.2 0-.4.1-.5.3l-.2.7-5.8 13.8-5.8 14-5.8 14.1-5.8 14.2-5.8 14.4-5.8 14.4-5.8 14.6-5.8 14.8-5.8 14.8-5.7 15.1-5.8 15.1-5.8 15.3-5.8 15.5-5.8 15.6-5.8 15.8-5.8 16-5.8 16.2-5.8 16.3-5.8 16.5-5.8 16.7-5.8 16.9-5.7 17.2-5.8 17.3-5.8 17.6-6.8 17.8-5.8 18.1-5.8 18.3-3.4 10.6c-.1.3 0 .5.3.6s.5 0 .6-.3l3.3-10.6 5.8-18.3 5.8-18.1 5.8-17.8 5.8-17.6 5.8-17.3 5.7-17.2 5.8-16.9 5.8-16.7 5.8-16.5 5.8-16.3 5.8-16.2 5.8-16 5.8-15.8 5.8-15.6 5.8-15.5 5.8-15.3 5.8-15.1 5.7-15.1 5.8-14.8 5.8-14.8 5.8-14.6 5.8-14.4 5.8-14.4 5.8-14.2 5.8-14.1 5.8-14 5.8-13.8.3-.7c.1-.3 0-.6-.3-.7 1.1.1 1 .1.9.1z" fill-rule="evenodd"/><path clip-rule="evenodd" d="m360.7 60c-.2 0-.4.1-.4.3l-2.9 5.1-5.8 10.3-5.8 10.3-5.8 10.5-5.8 10.5-5.8 10.5-5.7 10.6-5.8 10.7-5.8 10.8-5.8 10.9-5.8 10.9-5.8 11-5.8 11-5.8 11.2-5.8 11.2-5.8 11.3-6.5 10.9-5.8 11.5-5.8 11.5-5.7 11.7-5.8 11.7-5.8 11.9-5.8 11.9-5.8 12.1-5.8 12.1-5.8 12.2-5.8 12.4-5.8 12.4-5.8 12.6-5.8 12.7-5.8 12.8-5.7 12.9-5.8 13.1-5.8 13.2-5.8 13.3-5.8 13.5-5.8 13.6-4.8 11.3c-.1.3 0 .6.2.7.3.1.6 0 .7-.2l4.8-11.3 5.8-13.6 5.8-13.5 5.8-13.3 5.8-13.2 5.8-13.1 5.7-12.9 5.8-12.8 5.8-12.7 5.8-12.6 5.8-12.4 5.8-12.4 5.8-12.2 5.8-12.1 5.8-12.1 5.8-11.9 5.8-11.9 5.8-11.7 5.7-11.7 5.8-11.5 5.8-11.5 5.8-11.4 5.8-11.3 5.8-11.2 5.8-11.2 5.8-11 5.8-11 5.8-10.9 5.8-10.9 5.8-10.8 5.8-10.7 5.7-10.6 5.8-10.5 5.8-10.5 5.8-10.5 5.8-10.3 5.8-10.3 2.9-5.1c.1-.2.1-.5-.2-.7.6.5.5.4.4.4z" fill-rule="evenodd"/><path clip-rule="evenodd" d="m456.9 60c-.2 0-.3.1-.4.2l-5.8 8.6-5.8 8.6-5.8 8.6-5.8 8.7-5.8 8.8-5.8 8.8-5.8 8.8-5.8 8.9-5.8 8.9-5.8 9-5.7 9.1-5.8 9-5.8 9.2-5.8 9.2-6.4 8.6-5.8 9.3-5.8 9.4-5.8 9.4-5.8 9.5-5.8 9.5-5.8 9.6-5.8 9.6-5.7 9.7-5.8 9.8-5.8 9.8-5.8 9.9-5.8 10-5.8 10.1-5.8 10.1-5.8 10.1-5.8 10.3-5.8 10.3-5.8 10.4-5.8 10.5-5.8 10.6-5.7 10.6-5.8 10.8-5.8 10.8-5.8 10.9-5.8 11-5.8 11.1-5.8 11.2-5.8 11.3-5.8 11.3-4.5 9.1c-.1.2 0 .5.2.7.2.1.5 0 .7-.2l4.5-9.1 5.8-11.3 5.8-11.3 5.8-11.2 5.8-11.1 5.8-11 5.8-10.9 5.8-10.8 5.8-10.8 5.7-10.6 5.8-10.6 5.8-10.5 5.8-10.4 5.8-10.3 5.8-10.3 5.8-10.1 5.8-10.1 5.8-10.1 5.8-10 5.8-9.9 5.8-9.8 5.8-9.8 5.7-9.7 5.8-9.6 5.8-9.6 5.8-9.5 5.8-9.5 5.8-9.4 5.8-9.4 5.8-9.3 5.8-9.2 5.8-9.2 5.8-9.2 5.8-9 5.7-9.1 5.8-9 5.8-8.9 5.8-8.9 5.8-8.8 5.8-8.8 5.8-8.8 5.8-8.7 5.8-8.6 5.8-8.6 5.8-8.6c.2-.2.1-.5-.1-.7.4.7.3.6.2.6z" fill-rule="evenodd"/><path d="m72.2 369.4 5.8-20.7 5.9-20.3 5.8-20.1 5.8-19.8 5.9-19.6 5.8-19.2 5.8-19 5.8-18.8 5.8-18.6 5.9-18.4 5.8-18.1 5.8-18 5.9-17.7 5.8-17.5 5.8-17.4 5.9-17.1 2.9-8.6" fill="none" stroke="#a0a0a4" stroke-dasharray="4 2" stroke-linecap="round" stroke-linejoin="round"/><path d="m72.2 413 5.8-20 5.9-19.7 5.8-19.4 5.8-19.2 5.9-18.9 5.8-18.7 5.8-18.4 5.8-18.2 5.8-18 5.9-17.7 5.8-17.7 5.8-17.3 5.9-17.2 5.8-17 5.8-16.8 5.9-16.6 5.8-16.4 5.9-16.3 5.7-16.2 4.7-12.8" fill="none" stroke="#a0a0a4" stroke-dasharray="4 2" stroke-linecap="round" stroke-linejoin="round"/><path d="m248.5 498.2 4.3-7.4 5.9-9.8 5.8-9.6 5.8-9.7 5.9-9.5 5.8-9.5 5.8-9.3 5.9-9.4 5.8-9.3 5.9-9.1 5.8-9.2 5.8-9 5.9-9.1 5.7-8.9 5.8-8.9 5.9-8.9 5.8-8.7 5.8-8.8 5.9-8.6 5.8-8.7 5.9-8.5 5.8-8.6 5.8-8.4 5.9-8.4 5.8-8.4 5.7-8.3 5.9-8.3 5.8-8.2 5.8-8.2 5.9-8.2 5.8-8 5.8-8.1 5.9-8 5.8-8 5.9-7.9 5.8-7.9 5.8-7.8 5.9-7.9 5.7-7.7 5.8-7.8 5.9-7.6 5.8-7.8 5.8-7.5 5.9-7.7 5.8-7.5 5.9-7.6 5.8-7.4 5.8-7.5 5.9-7.4 5.8-7.3 5.7-7.4 5.9-7.3 2.9-3.7" fill="none" stroke="#a0a0a4" stroke-dasharray="4 2" stroke-linecap="round" stroke-linejoin="round"/><path d="m301.1 498.2 4.3-6.2 5.8-8.5 5.8-8.5 5.9-8.4 5.7-8.4 5.8-8.3 5.9-8.3 5.8-8.2 5.8-8.2 5.9-8.1 5.8-8.1 5.9-8 5.8-8 5.8-7.8 5.9-8 5.8-7.8 5.7-7.8 5.9-7.7 5.8-7.7 5.8-7.7 5.9-7.6 5.8-7.5 5.8-7.6 5.9-7.5 5.8-7.5 5.9-7.4 5.8-7.4 5.8-7.3 5.9-7.4 5.7-7.2 5.8-7.2 5.9-7.2 5.8-7.2 5.8-7.1 5.9-7.1 5.8-7.1 5.9-7 5.8-7.1 5.8-6.9 5.9-6.9 5.8-6.9 5.7-6.9 5.9-6.9 5.8-6.8 5.8-6.8 5.9-6.7 5.8-6.7 5.9-6.8 5.8-6.6 5.8-6.7 5.9-6.6 5.8-6.5 5.8-6.6 5.8-6.5 5.8-6.6 5.8-6.5 5.9-6.4 5.8-6.5 5.9-6.4 5.8-6.4" fill="none" stroke="#a0a0a4" stroke-dasharray="4 2" stroke-linecap="round" stroke-linejoin="round"/><path clip-rule="evenodd" d="m72.2 60.4c-.1 0-.2 0-.3.1-.1.1-.1.3-.1.4v437.6c0 .3.2.5.5.5h576.6c.3 0 .5-.2.5-.5v-437.6c0-.3-.2-.5-.5-.5zm.5 1h159.3 416.3v436.7h-575.6c0-2.3 0-4.6 0-6.9 0-143.2 0-286.5 0-429.8z" fill-rule="evenodd"/><text font-family="'ArialMT'" font-size="9" transform="translate(657.8223 65.3407)">6′ 7″</text><text font-family="'ArialMT'" font-size="9" transform="translate(657.6749 148.6736)">6′ 3″</text><text font-family="'ArialMT'" font-size="9" transform="translate(657.0106 232.2)">5′ 11″</text><text font-family="'ArialMT'" font-size="9" transform="translate(657.8646 317.6409)">5′ 7″</text><text font-family="'ArialMT'" font-size="9" transform="translate(658.4777 400.8911)">5′ 3″</text><text font-family="'ArialMT'" font-size="9" transform="translate(657.7277 484.8913)">4′ 11″</text><path d="m235.7 60.5 124.8.4" fill="none" stroke="#000" stroke-width=".75"/><path d="m143.1 498.2-70.9.5" fill="none" stroke="#000" stroke-width=".75"/><path clip-rule="evenodd" d="m144.3 497.7c0-1.2 27.6-64.4 41.6-95.2 49.5-108.8 114.7-236 172.4-336.4l1.9-3.4v2.4c0 1.3.3 2.4.8 2.4s.8-1.4.8-3v-3h46.5c25.6 0 46.5.2 46.5.4s-4.1 6.4-9.1 13.7c-12 17.5-40.8 60.9-51.2 77.1-59.4 92.7-104.3 167.8-146.7 245.3-13 23.8-39.6 73.9-49 92.4l-3.9 7.7h-12.6-12.6v-3c0-1.6-.3-3-.8-3s-.8 1.4-.8 3v3h-12c-6.4 0-11.8-.2-11.8-.4z" fill="#fff" fill-opacity=".4784" fill-rule="evenodd"/><g font-family="'ArialMT'"><text font-size="9" transform="translate(66.7591 50.6995)">88</text><text font-size="9" transform="translate(157.6998 49.9495)">132</text><text font-size="9" transform="translate(254.45 49.1995)">176</text><text font-size="9" transform="translate(350.4503 49.1995)">220</text><text font-size="9" transform="translate(446.4505 49.9495)">265</text><text font-size="9" transform="translate(542.6492 50.6995)">309</text><text font-size="9" transform="translate(637.8995 49.9495)">353</text><text font-size="14" transform="translate(308.1705 28.21)">Weight (pounds)</text><text font-size="14" transform="translate(302.4279 541.913)">Weight (kilograms)</text><text font-size="12" transform="translate(104.0534 124.1581)">Underweight</text><text font-size="12" transform="translate(336.4458 123.9943)">Overweight</text><text font-size="12" transform="translate(458.9914 124.6381)">Obese</text><text font-size="10" transform="translate(119.0259 138.4559)">BMI &lt;18.5</text><text font-size="10" transform="translate(347.0904 139.099)">BMI 25–30</text><text font-size="10" transform="translate(460.3498 139.9559)">BMI &gt;30</text><text font-size="14" transform="matrix(0 -1 1 0 32.3628 324.7549)">Height (meters)</text><text font-size="14" transform="matrix(0 -1 1 0 702.9639 346.6738)">Height (feet, inches)</text></g><path clip-rule="evenodd" d="m76.5 494.9c.6-1.8 4-12.3 7.5-23.4 41.3-129.7 97.3-281 148.5-401.4l3.6-8.4h13.8 13.8v3c0 1.7.3 3 .8 3s.8-1.4.8-3v-3h46.7c25.8 0 46.9.2 46.9.4s-2 3.9-4.4 8.1c-7.2 12.6-24.7 44-34.8 62.4-65.8 121-118.5 229-169.6 347.7l-7.3 16.9-23 .5c-12.7.3-27.8.5-33.7.5h-10.6z" fill="#fff" fill-opacity=".5025" fill-rule="evenodd"/><text font-family="'ArialMT'" font-size="12" transform="translate(219.7243 123.9943)">Normal weight</text><text font-family="'ArialMT'" font-size="10" transform="translate(233.8609 137.8114)">BMI 18.5–25</text></svg>