<svg xmlns="http://www.w3.org/2000/svg" xmlns:xlink="http://www.w3.org/1999/xlink" width="200.03" height="152.649" viewBox="0 0 200.03 152.649"><defs><linearGradient id="a" x1="0.871" y1="1" x2="0.871" gradientUnits="objectBoundingBox"><stop offset="0" stop-color="gray" stop-opacity="0.251"/><stop offset="0.54" stop-color="gray" stop-opacity="0.122"/><stop offset="1" stop-color="gray" stop-opacity="0.102"/></linearGradient></defs><g transform="translate(-0.023 0.02)"><path d="M200.546,92.289c-12.6-.438-24.6-4.506-36.066-8.957s-22.812-9.381-35.112-11.741c-7.911-1.517-16.957-1.731-23.332,2.51C99.9,78.19,97.922,85.229,96.855,91.767c-.8,4.918-1.271,10.1.925,14.7,1.525,3.2,4.233,5.884,6.106,8.945,6.515,10.654,1.91,23.8-5.148,34.2-3.31,4.881-7.154,9.541-9.71,14.732s-3.738,11.147-1.5,16.447c2.218,5.257,7.5,9.2,13.223,11.973,11.62,5.647,25.312,7.249,38.671,8.162,29.561,2.023,59.281,1.147,88.919.271,10.97-.325,21.986-.654,32.779-2.35,5.991-.94,12.179-2.436,16.529-6.036a13.846,13.846,0,0,0,3.191-18.084c-6.207-9.636-23.365-12.029-27.709-22.37-2.389-5.693.064-12.033,3.534-17.313,7.446-11.324,19.924-21.26,20.582-34.2.452-8.89-5.547-17.794-14.823-22-9.724-4.408-23.205-3.853-30.374,3.444C224.651,89.783,211.668,92.678,200.546,92.289Z" transform="translate(-86.32 -68.165)" fill="#d3d1ff"/><ellipse cx="72.233" cy="5.37" rx="72.233" ry="5.37" transform="translate(40.676 136.084)" fill="#d3d1ff"/><path d="M379.26,695.007s4.089-.654,6.542,2.237c0,0-1.8,1.418-5.67-.545Z" transform="translate(-322.204 -570.946)" fill="#6c63ff"/><path d="M370.047,695s-2.607,3.216-1.328,6.786c0,0,2.126-.853,2.358-5.187Z" transform="translate(-313.431 -570.991)" fill="#6c63ff"/><path d="M365,663.539s1.636-3,8.178,1.2a3.672,3.672,0,0,1-3.762,1.854A4.419,4.419,0,0,1,365,663.539Z" transform="translate(-310.72 -544.82)" fill="#6c63ff"/><path d="M347.413,666.707s-3.394-.39-3.723,7.381a3.674,3.674,0,0,0,3.68-2.011C348.9,669.619,348.268,668.241,347.413,666.707Z" transform="translate(-293.559 -548.204)" fill="#6c63ff"/><path d="M352.66,623s1.908-5.288,8.832-1.526c0,0-1.581,4.852-8.123,3.326Z" transform="translate(-300.783 -510.692)" fill="#6c63ff"/><path d="M341.73,583.98s3.6-5.345,9.979-.389c0,0-2.235,5.016-9.434,2.29Z" transform="translate(-291.981 -479.579)" fill="#6c63ff"/><path d="M337.81,546.631s4.2-4.907,10.524,0c0,0-3.98,4.307-10.524,1.254Z" transform="translate(-288.824 -449.755)" fill="#6c63ff"/><path d="M334.45,508.367s4.254-5.125,10.306-.273c0,0-4.8,4.525-10.306,1.472Z" transform="translate(-286.118 -418.796)" fill="#6c63ff"/><path d="M336.41,469.586s4.478-6.6,10.142-2.126c0,0-4.8,5.67-10.142,3.38Z" transform="translate(-287.697 -386.503)" fill="#6c63ff"/><path d="M341.73,431.74s4.745-6.542,10.251-1.527c0,0-5.615,5.672-10.251,2.726Z" transform="translate(-291.981 -356.237)" fill="#6c63ff"/><path d="M348.845,393.408s5.615-6.147,10.514-3.7c0,0-5.853,6.529-10.76,5.329Z" transform="translate(-297.513 -324.679)" fill="#6c63ff"/><path d="M358.039,355.259s6.488-7.524,10.249-5.016c0,0-4.774,5.841-10.709,6.425Z" transform="translate(-304.745 -292.949)" fill="#6c63ff"/><path d="M371.341,319.745s5.672-6.149,9.815-4.622c0,0-4.852,6.379-10.577,6.542Z" transform="translate(-315.214 -264.883)" fill="#6c63ff"/><path d="M386.533,283.509s6.27-5.89,9-4.854c0,0-4.525,6.544-9.268,6.162Z" transform="translate(-327.841 -235.613)" fill="#6c63ff"/><path d="M400.54,244.043s5.4-7.033,8.341-6.488c0,0-3.271,6.27-8.341,7.2Z" transform="translate(-339.34 -202.59)" fill="#6c63ff"/><path d="M413.707,204.25s4.77-5.393,7.346-5.38c0,0-3.766,7.2-7.543,7.138Z" transform="translate(-349.785 -171.461)" fill="#6c63ff"/><path d="M420.376,150.383l4.607-11.233s.232,10.154-5.193,13.316Z" transform="translate(-354.842 -123.369)" fill="#6c63ff"/><path d="M432.273,91.28s.763-9.377.273-10.14c0,0,3.295,7.788-.306,14.284Z" transform="translate(-364.868 -76.654)" fill="#6c63ff"/><path d="M319.182,631.772s-4.778-2.962-7.872,4.283c0,0,4.252,2.821,8.433-2.436Z" transform="translate(-267.484 -519.592)" fill="#6c63ff"/><path d="M305,590.854s-5.861-2.673-8.705,4.891c0,0,4.529,3.115,9.239-2.979Z" transform="translate(-255.388 -486.754)" fill="#6c63ff"/><path d="M292.924,548.981s-4.2-4.907-10.514,0c0,0,3.98,4.307,10.514,1.254Z" transform="translate(-244.211 -451.647)" fill="#6c63ff"/><path d="M291.1,508.367s-4.252-5.125-10.306-.273c0,0,4.8,4.525,10.306,1.472Z" transform="translate(-242.906 -418.796)" fill="#6c63ff"/><path d="M297.257,465.054s-2.983-7.4-9.467-4.211c0,0,3.5,6.552,9.2,5.436Z" transform="translate(-248.543 -381.784)" fill="#6c63ff"/><path d="M304.2,425.2s-2.963-7.518-9.541-4.03c0,0,4.026,6.891,9.249,5.193Z" transform="translate(-254.076 -349.737)" fill="#6c63ff"/><path d="M325.72,374.15s-1.168-8.242-6.62-8.98c0,0,1.155,8.692,5.884,10.465Z" transform="translate(-273.757 -305.382)" fill="#6c63ff"/><path d="M340.123,335.695s-.456-9.93-4.963-10.275c0,0,.152,7.537,4.455,11.682Z" transform="translate(-286.69 -273.371)" fill="#6c63ff"/><path d="M353.536,300.078s-1.345-8.258-5.646-9.268c0,0,.534,8,5.222,11.293Z" transform="translate(-296.942 -245.5)" fill="#6c63ff"/><path d="M377.672,263.586s-.047-8.6-2.673-9.866c0,0-1.632,7.788,1.912,10.964Z" transform="translate(-318.47 -215.632)" fill="#6c63ff"/><path d="M388.343,228.755s-.368-8.857-3.09-10.105c0,0-.933,7.009,2.681,10.686Z" transform="translate(-326.943 -187.39)" fill="#6c63ff"/><path d="M405.74,193.342s-.017-7.2-1.959-8.892c0,0-1.933,7.891.944,10.343Z" transform="translate(-341.439 -159.849)" fill="#6c63ff"/><path d="M410.821,145.4l-1.889-11.992s-2.568,9.825,1.98,14.153Z" transform="translate(-345.517 -118.747)" fill="#6c63ff"/><path d="M403.857,96.767S399,88.706,399.1,87.81c0,0,.516,8.448,6.62,12.656Z" transform="translate(-338.182 -82.026)" fill="#6c63ff"/><path d="M398.931,70.379S394.352,58.931,392.28,58a14.511,14.511,0,0,1,7.033,12.048Z" transform="translate(-332.688 -58.02)" fill="#6c63ff"/><path d="M412.091,140.807l-.312-.1c3.865-12.6,4.829-20.639,2.714-22.652l.226-.238C416.961,119.946,416.052,127.894,412.091,140.807Z" transform="translate(-348.392 -106.193)" fill="#444053"/><path d="M356.813,261.539l-.463-.164c.409-1.155.853-2.327,1.316-3.481,4.034-10.06,7.467-19.406,9.669-26.589l.4-.195c-2.206,7.183-5.578,16.9-9.617,26.967C357.66,259.226,357.22,260.39,356.813,261.539Z" transform="translate(-303.754 -197.424)" fill="#444053"/><path d="M346.986,452.285a63.668,63.668,0,0,1-10.693-19.167,70.954,70.954,0,0,1-4.225-21.957c-.3-9.371,1.667-19.837,5.037-29.34l.366.428c-7.562,21.332-4.558,39.613-.572,50.62a63.091,63.091,0,0,0,10.575,18.98Z" transform="translate(-284.176 -318.79)" fill="#444053"/><path d="M241.278,735.78s-7.409-.446-6.534,4.745a1.266,1.266,0,0,0,.658,1.334s.012-.389.759-.255a3.421,3.421,0,0,0,.8.039,1.679,1.679,0,0,0,.985-.4h0s2.081-.861,2.891-4.264c0,0,.6-.742.574-.933l-1.25.534a2.236,2.236,0,0,1,.091,1.651s-.041-1.618-.28-1.581c-.049,0-.65.313-.65.313a3.692,3.692,0,0,1,.181,2.712s.21-1.935-.409-2.6l-.88.514a3.884,3.884,0,0,1,.277,2.946s.148-2.031-.461-2.821l-.8.623a3.806,3.806,0,0,1,.315,2.7s-.064-2.364-.489-2.543a4.881,4.881,0,0,0-.8.868s.553,1.168.21,1.774c0,0-.21-1.575-.389-1.583a5.241,5.241,0,0,0-.767,1.752,3.79,3.79,0,0,1,.6-1.858,2.085,2.085,0,0,0-1.063.551s.107-.738,1.234-.8a5.328,5.328,0,0,1,.728-.841,4.564,4.564,0,0,0-1.8.208,2.04,2.04,0,0,1,2.007-.389l.779-.643a6.715,6.715,0,0,0-2.1.021,2.56,2.56,0,0,1,2.315-.168l.857-.512a7.786,7.786,0,0,0-2.009-.173,3.087,3.087,0,0,1,2.26.035l.613-.274s-.923-.181-1.192-.21-.286-.1-.286-.1a3.194,3.194,0,0,1,1.733.195A7.932,7.932,0,0,0,241.278,735.78Z" transform="translate(-205.768 -603.824)" fill="#aca7ff"/><path d="M130.691,748.15s-7.4-.446-6.532,4.745a1.263,1.263,0,0,0,.656,1.334s.014-.39.761-.255a3.3,3.3,0,0,0,.8.039,1.665,1.665,0,0,0,.983-.4h0s2.083-.86,2.893-4.264c0,0,.6-.742.584-.933l-1.25.533a2.236,2.236,0,0,1,.091,1.651s-.041-1.618-.28-1.581c-.049,0-.65.314-.65.314a3.691,3.691,0,0,1,.181,2.712s.21-1.935-.411-2.6l-.88.514a3.884,3.884,0,0,1,.276,2.946s.15-2.031-.461-2.821l-.8.623a3.805,3.805,0,0,1,.315,2.7s-.064-2.364-.489-2.543a4.887,4.887,0,0,0-.8.868s.553,1.168.21,1.774c0,0-.21-1.575-.389-1.583a5.283,5.283,0,0,0-.767,1.752,3.8,3.8,0,0,1,.6-1.858,2.1,2.1,0,0,0-1.065.551s.109-.738,1.236-.8a5.242,5.242,0,0,1,.728-.839,4.551,4.551,0,0,0-1.8.206,2.04,2.04,0,0,1,2.007-.389l.779-.642a6.72,6.72,0,0,0-2.1.021,2.56,2.56,0,0,1,2.315-.167l.857-.512a7.806,7.806,0,0,0-2.009-.173,3.087,3.087,0,0,1,2.261.035l.613-.274s-.923-.181-1.194-.21-.284-.1-.284-.1a3.212,3.212,0,0,1,1.733.195A8.013,8.013,0,0,0,130.691,748.15Z" transform="translate(-116.715 -613.785)" fill="#aca7ff"/><path d="M192.324,777.19s-7.4-.446-6.534,4.745a1.266,1.266,0,0,0,.658,1.334s.014-.389.759-.255a3.431,3.431,0,0,0,.806.039,1.678,1.678,0,0,0,.983-.405h0s2.081-.861,2.891-4.264c0,0,.6-.742.584-.933l-1.25.534a2.247,2.247,0,0,1,.091,1.651s-.041-1.618-.282-1.581c-.049,0-.648.313-.648.313a3.693,3.693,0,0,1,.179,2.712s.21-1.936-.409-2.6l-.88.514a3.885,3.885,0,0,1,.276,2.946s.15-2.031-.461-2.821l-.8.623a3.794,3.794,0,0,1,.315,2.7s-.064-2.364-.487-2.543a4.815,4.815,0,0,0-.8.868s.553,1.168.208,1.774c0,0-.21-1.575-.389-1.583a5.241,5.241,0,0,0-.767,1.752,3.79,3.79,0,0,1,.6-1.857,2.085,2.085,0,0,0-1.063.551s.107-.738,1.236-.8a4.843,4.843,0,0,1,.726-.841,4.568,4.568,0,0,0-1.8.208,2.028,2.028,0,0,1,2.007-.38l.779-.642a6.714,6.714,0,0,0-2.1.021,2.562,2.562,0,0,1,2.315-.167l.859-.512a7.834,7.834,0,0,0-2-.167,3.085,3.085,0,0,1,2.261.035l.611-.275s-.921-.181-1.192-.21-.284-.1-.284-.1a3.19,3.19,0,0,1,1.733.195A7.855,7.855,0,0,0,192.324,777.19Z" transform="translate(-166.347 -637.171)" fill="#aca7ff"/><ellipse cx="5.243" cy="0.886" rx="5.243" ry="0.886" transform="translate(14.959 145.758)" fill="#d3d1ff"/><ellipse cx="5.243" cy="0.886" rx="5.243" ry="0.886" transform="translate(181.274 145.758)" fill="#d3d1ff"/><ellipse cx="5.243" cy="0.886" rx="5.243" ry="0.886" transform="translate(131.061 150.857)" fill="#d3d1ff"/><ellipse cx="5.243" cy="0.886" rx="5.243" ry="0.886" transform="translate(189.567 138.078)" fill="#d3d1ff"/><ellipse cx="5.243" cy="0.886" rx="5.243" ry="0.886" transform="translate(25.163 137.525)" fill="#d3d1ff"/><ellipse cx="5.243" cy="0.886" rx="5.243" ry="0.886" transform="translate(3.623 140.012)" fill="#d3d1ff"/><path d="M9.8,0H74.187a9.8,9.8,0,0,1,9.8,9.8V115.081a9.8,9.8,0,0,1-9.8,9.8H9.8a9.8,9.8,0,0,1-9.8-9.8V9.8A9.8,9.8,0,0,1,9.8,0Z" transform="translate(58.965 15.51)" fill="#aca7ff"/><rect width="69.653" height="24.551" rx="12.275" transform="translate(66.652 26.244)" opacity="0.1"/><path d="M10.2,0H58.4A10.2,10.2,0,0,1,68.6,10.2v3.345a10.2,10.2,0,0,1-10.2,10.2H10.2A10.2,10.2,0,0,1,0,13.545V10.2A10.2,10.2,0,0,1,10.2,0Z" transform="translate(67.099 26.723)" fill="#fff"/><rect width="13.851" height="15.39" rx="6.926" transform="translate(69.078 61.021)" opacity="0.4"/><rect width="13.851" height="15.39" rx="6.926" transform="translate(86.008 61.021)" opacity="0.4"/><rect width="13.851" height="15.39" rx="6.926" transform="translate(102.937 61.021)" opacity="0.4"/><rect width="13.851" height="15.39" rx="6.926" transform="translate(119.867 61.348)" opacity="0.1"/><rect width="13.851" height="15.39" rx="6.926" transform="translate(119.867 61.021)" fill="#6c63ff"/><rect width="13.851" height="15.39" rx="6.926" transform="translate(69.078 77.951)" opacity="0.4"/><rect width="13.851" height="15.39" rx="6.926" transform="translate(86.008 77.951)" opacity="0.4"/><rect width="13.851" height="15.39" rx="6.926" transform="translate(102.937 77.951)" opacity="0.4"/><rect width="13.851" height="15.39" rx="6.926" transform="translate(69.078 96.639)" opacity="0.4"/><rect width="13.851" height="15.39" rx="6.926" transform="translate(86.008 96.639)" opacity="0.4"/><rect width="13.851" height="15.39" rx="6.926" transform="translate(102.937 96.639)" opacity="0.4"/><rect width="13.851" height="15.39" rx="6.926" transform="translate(102.937 115.327)" opacity="0.4"/><rect width="13.851" height="15.39" rx="6.926" transform="translate(119.867 78.278)" opacity="0.1"/><rect width="13.851" height="15.39" rx="6.926" transform="translate(119.867 77.951)" fill="#6c63ff"/><rect width="13.851" height="15.39" rx="6.926" transform="translate(119.867 77.951)" opacity="0.2"/><rect width="30.781" height="15.39" rx="7.695" transform="translate(69.078 115.327)" opacity="0.4"/><rect width="15.17" height="34.08" rx="7.585" transform="translate(118.547 96.639)" opacity="0.4"/><rect width="6.063" height="0.656" transform="translate(126.553 46.32)" fill="#e2e1ff"/><rect width="6.063" height="0.656" transform="translate(117.677 46.32)" fill="#e2e1ff"/><rect width="6.063" height="0.656" transform="translate(108.798 46.32)" fill="#e2e1ff"/><rect width="6.063" height="0.656" transform="translate(99.921 46.32)" fill="#e2e1ff"/><path d="M800.254,416.712a8.261,8.261,0,0,0,0-4.206v-1.984a6.928,6.928,0,0,0-2.475-6.367l-2.114-1.865a7.891,7.891,0,0,0-1.531-1.083,1.565,1.565,0,0,0-.195-.029l-.062-.037a6.385,6.385,0,0,1-.463-.974.9.9,0,0,0,.754-.257.976.976,0,0,0,.177-.3h0c.123-.275.144-.607.247-.9a2.147,2.147,0,0,1,.389-.647c-.021.035-.045.068-.064.105.3-.374.691-.693.973-1.087a2.422,2.422,0,0,0,.154-.243c-.012.017-.027.033-.041.051a5.535,5.535,0,0,0,.621-2.113,1.9,1.9,0,0,0,.011-.755,2.752,2.752,0,0,0-.21-.479c-.46-.948-.452-2.142-1.186-2.9a3.573,3.573,0,0,0-2.179-.837,5.659,5.659,0,0,1-2.3-.567,2.421,2.421,0,0,0-.621-.341.51.51,0,0,0-.609.226.4.4,0,0,1-.082.166.265.265,0,0,1-.234.014l-1.049-.28.012.052h-.027l.039.166a.089.089,0,0,1,.1.056l-.169.261a2.632,2.632,0,0,1-.946-.195.207.207,0,0,0,0,.051h-.016c-.019.3.317.489.421.767a.583.583,0,0,1,0,.376.823.823,0,0,1-.195.3c-.372.368-.849.3-1.277.528a.277.277,0,0,0-.156.173.125.125,0,0,0-.014.1.225.225,0,0,0,.088.109,1.945,1.945,0,0,0,.407.253c-.043.039-.084.078-.123.119a4.692,4.692,0,0,0,1.622,7.656c.016.082.027.165.039.253v.025l.012.113-1.414.6a1.126,1.126,0,0,1-1.013-.652c-.329-.68-1.491,0-1.491,0s-3.546-.265-4.868.389c0,0-2.116-.888-2.414-.948s-.744-.3-.952-.236-.477-.389-.627-.356-.208-.3-.685-.415-.656.031-1.192-.5a47.329,47.329,0,0,0-4.889-2.636l-1.955-1.608-2.085-1.659-.037.068c-.014-.049-.027-.1-.041-.154a20,20,0,0,0-.779-2.432c-.134-.321-.195-.726-.376-.512-.111.129-.3-.154-.584-.345a.493.493,0,0,0-.734.214h0c-1.624,2.547-2.206,2.726-1.266,3.662.839.831,1.4,1.558,2.08,1.787l.082.025a.087.087,0,0,1-.045,0l3.964,4.739a23.7,23.7,0,0,0,4.829,3.287c1.969.8,1.817,1.038,1.817,1.038s5.962,3.02,6.885,2.962.746,6.19.358,7.2S779.541,422,779.541,422a3.468,3.468,0,0,0,.029,2.605,16.474,16.474,0,0,1,.014,2.531,8.7,8.7,0,0,0-1.445,3.721,2.129,2.129,0,0,1-.023.226.529.529,0,0,1-.14.115l.132-.039a7.5,7.5,0,0,1-.39,1.788,7.27,7.27,0,0,0-.493,2.543v4.7l-.389,2.921s-.477,2.21,0,2.726a1.262,1.262,0,0,1,.261.907,1.69,1.69,0,0,0,.3,1.059.792.792,0,0,1,.195.68c-.158.512.234,5.962.234,5.962a6.058,6.058,0,0,1-.273,1.581c-.158.08.273,1.737.273,1.737s-1.61,1.344-1.2,2.054l.411.631-.109.107-.066.068a.635.635,0,0,0-.411-.078,15.668,15.668,0,0,1-1.62,1.443,17.581,17.581,0,0,1-2.7,1.283l-1.558.127h-.029s-.746-.07-.327,1.085,4.161.8,4.161.8l2.185-.345a41.525,41.525,0,0,0,5.01-.228c.465-.1.584-.352.545-.6h0l-.012-.012a1.558,1.558,0,0,0-.319-.652.249.249,0,0,0-.027-.035l.07-.8c1.653-.952-.467-2.825-.467-2.825a19.59,19.59,0,0,1,1.1-2.091c.372-.512.372-8.057.372-8.057s.195-2.726-.317-3.357a1.135,1.135,0,0,1,.557-1.026c.368-.251,1.48-3.711,2.352-6.583l.549,3.384a4.819,4.819,0,0,0,.237,2.093.806.806,0,0,1,.148.631,2.842,2.842,0,0,0,.08,1.363.9.9,0,0,0,.29.487c.317.158.337.72.456.839s.855-.167.894.267a9.842,9.842,0,0,1,0,1.145l.239,7.029a4.668,4.668,0,0,0-.477,2.142,2.758,2.758,0,0,1-.286,1.258.644.644,0,0,0,.058.755l.068.08-.294.226a.649.649,0,0,0-.183.8.629.629,0,0,0-.181.681.479.479,0,0,0,.051.111,1.106,1.106,0,0,0-.594.294,4.873,4.873,0,0,1-1.05,1.055,20.2,20.2,0,0,0-1.672,1.433,2.4,2.4,0,0,1-.974.779,1.615,1.615,0,0,1-.294.088c-.779.16-.535.973.1,1.108a10.585,10.585,0,0,0,4.381.4,1.547,1.547,0,0,0,1.2-.167,17.654,17.654,0,0,1,2.309-.806s.894,0,1.014-.354a1.381,1.381,0,0,0,.051-.346l.025-.025-.023-.021a4.761,4.761,0,0,0-.06-.793c-.023-.136-.049-.257-.072-.354-.076-.3-.218-.679-.279-.841a.306.306,0,0,0,.027-.041c.341-.584-.226-1.971-.226-1.971a3.786,3.786,0,0,1,.672-.8c.317-.238,1.153-6.4,1.153-6.4a5.594,5.594,0,0,1,.389-2.29c.43-.711-.6-5.014-.6-5.014s-.438-.987-.278-1.344a4.724,4.724,0,0,0-.16-1.659v-1.558a1.727,1.727,0,0,0-.091-.545,2.58,2.58,0,0,1-.107-1.573c.278-.711.913-5.094.913-5.094a5.866,5.866,0,0,1,.232-3.474,3,3,0,0,1,.2-.356c.539-.847.378-2.352.111-3.565-.039-.195-.084-.37-.129-.539-.017-.074-.037-.144-.056-.214l.086-.035a2.524,2.524,0,0,1,.027-.311,2.188,2.188,0,0,0,1.433-.991,16.026,16.026,0,0,1,3.427-2.9,2.98,2.98,0,0,0,1.729-2.1c-.238-.415.426-2.1.426-2.1Zm-6.338-15.5Zm1.092,18.23-1.721,2v-.012c-.448-.623.417-2.015.417-2.015l1.431-3.193a1.807,1.807,0,0,1-.195.94c-.389.534.716,1.423.716,1.423C795.068,418.579,795.009,419.438,795.009,419.438Z" transform="translate(-628.918 -324.331)" fill="url(#a)"/><path d="M766.525,396.015l-.94,1.824a3.7,3.7,0,0,1-.874-.183,3.309,3.309,0,0,1-2.054-1.776,2.583,2.583,0,0,1,1.2-3.405c.646-.354,1.248-.757,1.733.405a20.09,20.09,0,0,1,.761,2.416C766.458,395.723,766.525,396.015,766.525,396.015Z" transform="translate(-630.739 -327.075)" fill="#cc818c"/><path d="M906.347,436.73l-1.5,2.235s-7.093,3.384-5.738-.584a8.921,8.921,0,0,0,.559-3.918v-.025a3.154,3.154,0,0,0-.557-1.589s6.914-3.54,5.884-1.119a3.334,3.334,0,0,0-.243,1.593,5.43,5.43,0,0,0,.744,2.21A7.355,7.355,0,0,0,906.347,436.73Z" transform="translate(-740.695 -358.3)" fill="#cc818c"/><path d="M860.48,601.8s1.02,4.284.584,4.983a5.418,5.418,0,0,0-.389,2.276s-.823,6.122-1.137,6.355a3.741,3.741,0,0,0-.668.779s.561,1.386.224,1.959a.475.475,0,0,1-.224.195c-.526.222-2.469-.763-3.575-1.363a.63.63,0,0,1-.113-1.028.642.642,0,0,1,.179-.794l.292-.226-.068-.08a.644.644,0,0,1-.058-.751,2.727,2.727,0,0,0,.282-1.248,4.569,4.569,0,0,1,.471-2.119l-.236-6.986a9.682,9.682,0,0,0,0-1.137c-.039-.43-.765-.146-.882-.265s-.138-.676-.452-.833a.893.893,0,0,1-.284-.485,2.8,2.8,0,0,1-.08-1.363.8.8,0,0,0-.146-.627,4.8,4.8,0,0,1-.236-2.078l-.541-3.365c-.863,2.854-1.959,6.293-2.323,6.542a1.131,1.131,0,0,0-.549,1.018c.51.629.313,3.337.313,3.337s0,7.492-.368,8a19.38,19.38,0,0,0-1.08,2.087s2.1,1.871.448,2.815h-.017c-1.688.942-5.179-1.686-5.179-1.686l.364-.364.107-.107-.413-.615c-.4-.707,1.184-2.04,1.184-2.04s-.424-1.649-.268-1.727a6.037,6.037,0,0,0,.268-1.569s-.389-5.415-.23-5.925a.8.8,0,0,0-.195-.676,1.68,1.68,0,0,1-.3-1.051,1.249,1.249,0,0,0-.259-.9c-.471-.51,0-2.706,0-2.706l.389-2.905v-4.613a7.355,7.355,0,0,1,.493-2.6,7.786,7.786,0,0,0,.428-2.089,8.753,8.753,0,0,1,1.466-3.756c.284-.436.5-.7.5-.7l12.555-.491s.195.559.4,1.336c.043.169.085.348.127.535.263,1.207.421,2.7-.111,3.544a3.291,3.291,0,0,0-.195.354,5.866,5.866,0,0,0-.228,3.452s-.627,4.354-.9,5.062a2.542,2.542,0,0,0,.107,1.558,1.768,1.768,0,0,1,.088.543v1.552a4.725,4.725,0,0,1,.158,1.649C860.046,600.82,860.48,601.8,860.48,601.8Z" transform="translate(-696.987 -479.091)" fill="#704bff"/><path d="M923.444,594.674a2.987,2.987,0,0,0-.194.352l-.707-.039c.068-.364-.413-3.777-.413-3.777l1.423-.08C923.816,592.335,923.976,593.831,923.444,594.674Z" transform="translate(-759.373 -487.346)" opacity="0.1"/><path d="M924.044,594.064a3.343,3.343,0,0,0-.195.354l-.707-.041c.068-.362-.413-3.777-.413-3.777l1.423-.08C924.418,591.727,924.576,593.222,924.044,594.064Z" transform="translate(-759.856 -486.854)" fill="#444053"/><path d="M924.044,594.064a3.343,3.343,0,0,0-.195.354l-.707-.041c.068-.362-.413-3.777-.413-3.777l1.423-.08C924.418,591.727,924.576,593.222,924.044,594.064Z" transform="translate(-759.856 -486.854)" fill="#fff" opacity="0.9"/><path d="M901.873,766.006a.476.476,0,0,1-.224.195c-.526.222-2.469-.763-3.575-1.363a.636.636,0,0,1-.294-.351c.631-.115,1.044.584,1.044.584a.931.931,0,0,1,1.295.314c.539.794,1.7.459,1.7.459Z" transform="translate(-739.764 -626.938)" opacity="0.1"/><path d="M881.671,768.918c-.117.354-1,.354-1,.354a18.832,18.832,0,0,0-2.286.8,1.563,1.563,0,0,1-1.186.167,10.5,10.5,0,0,1-4.327-.4c-.627-.128-.872-.94-.1-1.1a1.576,1.576,0,0,0,.29-.09,2.365,2.365,0,0,0,.974-.779,19.933,19.933,0,0,1,1.653-1.423,4.828,4.828,0,0,0,1.036-1.049,1,1,0,0,1,1.579.3.93.93,0,0,1,1.295.316c.539.794,1.7.458,1.7.458s.208.531.306.913c.023.1.049.218.072.354A3.214,3.214,0,0,1,881.671,768.918Z" transform="translate(-719.237 -627.446)" fill="#ff748f"/><circle cx="0.107" cy="0.107" r="0.107" transform="translate(159.628 138.777)" fill="#575988"/><circle cx="0.107" cy="0.107" r="0.107" transform="translate(158.707 139.64)" fill="#575988"/><circle cx="0.107" cy="0.107" r="0.107" transform="translate(157.771 140.415)" fill="#575988"/><circle cx="0.107" cy="0.107" r="0.107" transform="translate(158.256 140.068)" fill="#575988"/><circle cx="0.107" cy="0.107" r="0.107" transform="translate(159.188 139.182)" fill="#575988"/><path d="M881.671,779.826c-.117.354-1,.354-1,.354a18.852,18.852,0,0,0-2.286.8,1.563,1.563,0,0,1-1.186.167,10.5,10.5,0,0,1-4.327-.4c-.627-.128-.872-.94-.1-1.1a1.576,1.576,0,0,0,.29-.09,7.528,7.528,0,0,0,2.122.4c1.6.068,2.864,0,2.864,0l1.618-.52a2.705,2.705,0,0,1,1-.362,2.62,2.62,0,0,0,.995-.432A3.054,3.054,0,0,1,881.671,779.826Z" transform="translate(-719.237 -638.354)" fill="#dce6f2"/><path d="M898.679,783.836a1.361,1.361,0,0,1-.269-.025l.023-.115a1.713,1.713,0,0,0,.974-.136c.144-.056.288-.125.428-.194a5.315,5.315,0,0,1,.512-.222l.159-.055c.088-.031.177-.06.263-.1.049-.019.1-.043.144-.066a1.663,1.663,0,0,1,.362-.138,1.76,1.76,0,0,1,.195-.025,1.8,1.8,0,0,0,.179-.021,1.7,1.7,0,0,0,.341-.127,1.644,1.644,0,0,1,.366-.136l.086-.014a.417.417,0,0,0,.253-.093l.088.08a.527.527,0,0,1-.321.131l-.082.014a1.573,1.573,0,0,0-.341.126,1.788,1.788,0,0,1-.366.134,1.329,1.329,0,0,1-.195.023,1.7,1.7,0,0,0-.183.023,1.556,1.556,0,0,0-.337.13l-.148.068c-.09.037-.183.068-.273.1l-.156.054c-.171.062-.339.142-.5.218s-.288.136-.436.195A2.13,2.13,0,0,1,898.679,783.836Z" transform="translate(-740.271 -641.35)" fill="#575988" opacity="0.5"/><path d="M901.73,684.3a2.913,2.913,0,0,1,2.208-1.168,8.8,8.8,0,0,0,1.99-.158,4.98,4.98,0,0,1-1.509.6A26.335,26.335,0,0,0,901.73,684.3Z" transform="translate(-742.945 -561.303)" opacity="0.1"/><path d="M904.15,688.758a3.278,3.278,0,0,1,1.156-.53c.421-.019.779-.058.779-.058a2.245,2.245,0,0,1-.646.313C905.094,688.581,904.15,688.758,904.15,688.758Z" transform="translate(-744.893 -565.491)" opacity="0.1"/><path d="M905,693s1.108.088,1.118.389" transform="translate(-745.578 -569.381)" opacity="0.1"/><path d="M851.93,599.415a4.392,4.392,0,0,0,1.118-1.441,1.006,1.006,0,0,1,.43-.635s.639.255.07,1.038A3.152,3.152,0,0,1,851.93,599.415Z" transform="translate(-702.841 -492.346)" opacity="0.1"/><path d="M905.648,431.71c-.226.534-.425.584-.39,1.092a3.894,3.894,0,0,1-.9.707c-.7.417-1.464,1.233-2.337,1.233a4.656,4.656,0,0,1-1.708-.323,3.15,3.15,0,0,0-.557-1.589S906.676,429.289,905.648,431.71Z" transform="translate(-741.358 -358.284)" opacity="0.1"/><path d="M896.786,406.213a4.673,4.673,0,1,1-4.673-4.673A4.673,4.673,0,0,1,896.786,406.213Z" transform="translate(-731.437 -334.67)" fill="#cc818c"/><path d="M906.347,451.536l-1.5,2.235s-7.093,3.384-5.738-.584a8.921,8.921,0,0,0,.559-3.917h.012a3.755,3.755,0,0,1,.142.9c.021.611.037,1.384,1.558,1.639a4.229,4.229,0,0,0,4.12-1.466A7.361,7.361,0,0,0,906.347,451.536Z" transform="translate(-740.695 -373.107)" opacity="0.1"/><path d="M775.766,409.061l-.94,1.824a3.7,3.7,0,0,1-.874-.183l-.082-.1c.389.148,1.676-2.3,1.676-2.3l.041.033C775.7,408.769,775.766,409.061,775.766,409.061Z" transform="translate(-639.98 -340.122)" opacity="0.1"/><path d="M873.529,582.246c-3.03,1.316-13.509.195-13.509.195a1.428,1.428,0,0,0,.052-.343c.284-.436.5-.7.5-.7l12.555-.491S873.328,581.469,873.529,582.246Z" transform="translate(-709.356 -479.115)" opacity="0.1"/><path d="M799.447,416.91l-1.4.6a1.108,1.108,0,0,1-1-.648c-.325-.676-1.472,0-1.472,0s-3.5-.265-4.8.389c0,0-2.089-.884-2.383-.942s-.736-.294-.942-.236-.469-.389-.617-.352-.206-.294-.677-.413-.647.029-1.168-.5a46.028,46.028,0,0,0-4.827-2.619l-1.947-1.589-2.06-1.647s-1.3,2.442-1.678,2.294l3.914,4.71a23.479,23.479,0,0,0,4.768,3.265c1.943.794,1.8,1.03,1.8,1.03s5.886,3,6.8,2.944.74,6.143.351,7.144-1,8.24-1,8.24a3.5,3.5,0,0,0,.029,2.59,14.8,14.8,0,0,1,0,2.56s10.543,1.127,13.536-.206c0,0,.442-4.885,0-5.5s.413-1.994.413-1.994l1.883-4.208,4.591-4.62a6.912,6.912,0,0,0-2.444-6.326l-2.089-1.856a7.734,7.734,0,0,0-1.511-1.075c-.343-.064-.216,0-.216,0a4.215,4.215,0,0,1-4.159,1.517c-1.515-.255-1.531-1.028-1.558-1.638A3.8,3.8,0,0,0,799.447,416.91Z" transform="translate(-640.471 -340.637)" fill="#e1e1e1"/><path d="M900.129,531.19s-6.476.265-7.769,2.3a6.376,6.376,0,0,1,3.178-.561C897.037,533.164,900.129,531.19,900.129,531.19Z" transform="translate(-735.399 -439.076)" opacity="0.1"/><path d="M895.53,561.522s3.061.206,3.709-.442.65-1.03.65-1.03Z" transform="translate(-737.952 -462.317)" opacity="0.1"/><path d="M931.294,499.14s-2.592,3.061.559,4.385Z" transform="translate(-765.945 -413.267)" opacity="0.1"/><path d="M856.69,468.77s.943,1.922,1.414,2.048Z" transform="translate(-706.674 -388.81)" opacity="0.1"/><path d="M840.37,464.53a34.865,34.865,0,0,0,2.8,2.325A19.533,19.533,0,0,0,840.37,464.53Z" transform="translate(-693.532 -385.395)" opacity="0.1"/><path d="M883.239,454.11s-2.266,3.384-.794,5.452A7.333,7.333,0,0,1,883.239,454.11Z" transform="translate(-727.014 -377.004)" opacity="0.1"/><path d="M887.565,577.963l-.693.652-.1.09-.8.76c-.057.043-.113.085-.171.124-3.265,2.337-3.919-1.215-3.919-1.215s-1.441.942-1.647.177,3.355-1.853,3.894-1.8a.709.709,0,0,0,.142,0A2.226,2.226,0,0,0,885,576.5l.158-.084a6.18,6.18,0,0,0,.528-.333Z" transform="translate(-725.627 -475.226)" fill="#cc818c"/><path d="M902.83,406.2a4.674,4.674,0,0,1-2.278,4.023,2.673,2.673,0,0,1-.171-.341c-.167-.389-.271-.81-.44-1.2a3.7,3.7,0,0,0-.779-1.145.5.5,0,0,0-.208-.144.56.56,0,0,0-.428.119,1.972,1.972,0,0,1-.652.286.693.693,0,0,1-.654-.195.979.979,0,0,1-.105-.816,10.153,10.153,0,0,0,.308-1.828,1.789,1.789,0,0,0-.779-1.593,6.978,6.978,0,0,0-1.593-.347,1.753,1.753,0,0,1-.239-.082,4.673,4.673,0,0,1,8.02,3.263Z" transform="translate(-737.372 -334.66)" opacity="0.1"/><path d="M892.524,394.611c-.084.045-.177.127-.152.22a.222.222,0,0,0,.086.109,2.043,2.043,0,0,0,.74.38,6.6,6.6,0,0,1,1.595.346,1.8,1.8,0,0,1,.779,1.593,10.3,10.3,0,0,1-.305,1.826.982.982,0,0,0,.1.818.7.7,0,0,0,.654.195,1.95,1.95,0,0,0,.652-.284.566.566,0,0,1,.43-.121.532.532,0,0,1,.208.144,3.7,3.7,0,0,1,.779,1.147c.172.389.273.808.44,1.2a1.947,1.947,0,0,0,.779.974.982.982,0,0,0,1.18-.125c.288-.319.265-.757.4-1.141.234-.668.886-1.086,1.295-1.663a5.23,5.23,0,0,0,.709-2.247,1.85,1.85,0,0,0,.012-.751,2.712,2.712,0,0,0-.206-.475c-.456-.942-.446-2.128-1.168-2.88a3.508,3.508,0,0,0-2.152-.833,5.544,5.544,0,0,1-2.264-.563,2.467,2.467,0,0,0-.614-.339.5.5,0,0,0-.6.226.4.4,0,0,1-.08.163.259.259,0,0,1-.232.014l-1.036-.278.119.522a2.592,2.592,0,0,1-1.1-.195c-.019.3.313.487.417.763a.706.706,0,0,1-.195.716C893.418,394.451,892.949,394.379,892.524,394.611Z" transform="translate(-735.406 -327.079)" fill="#585268"/><path d="M849.94,759.521l-.043.469h-.018c-1.688.942-5.179-1.686-5.179-1.686l.364-.364a.634.634,0,0,1,.16.493l.713.039.853.921a16.2,16.2,0,0,0,2.933.119Z" transform="translate(-697.019 -621.676)" opacity="0.1"/><path d="M823.2,762.063a40.8,40.8,0,0,1-4.944.228l-2.157.341s-3.7.354-4.111-.794.323-1.077.323-1.077h.029l1.54-.125a17.612,17.612,0,0,0,2.669-1.275,15.522,15.522,0,0,0,1.6-1.433s.643-.125.631.619l.713.039.853.923a16.05,16.05,0,0,0,2.932.117h.218l-.1,1.139.027.033C823.576,760.977,824.186,761.845,823.2,762.063Z" transform="translate(-670.58 -621.66)" fill="#ff748f"/><circle cx="0.107" cy="0.107" r="0.107" transform="translate(148.536 137.442)" fill="#575988"/><circle cx="0.107" cy="0.107" r="0.107" transform="translate(145.769 138.641)" fill="#575988"/><circle cx="0.107" cy="0.107" r="0.107" transform="translate(144.344 139.073)" fill="#575988"/><circle cx="0.107" cy="0.107" r="0.107" transform="translate(146.495 138.411)" fill="#575988"/><circle cx="0.107" cy="0.107" r="0.107" transform="translate(145.054 138.857)" fill="#575988"/><circle cx="0.107" cy="0.107" r="0.107" transform="translate(147.229 138.07)" fill="#575988"/><circle cx="0.107" cy="0.107" r="0.107" transform="translate(147.956 137.755)" fill="#575988"/><path d="M823.2,773.809a40.821,40.821,0,0,1-4.944.228l-2.157.341s-3.7.354-4.111-.794.323-1.077.323-1.077h.029a1.981,1.981,0,0,0,1.637.67l2.66.107,2.755-.195s2.582-.076,3-.165a6.168,6.168,0,0,0,1.028-.378C823.576,772.722,824.186,773.591,823.2,773.809Z" transform="translate(-670.58 -633.406)" fill="#dce6f2"/><path d="M832.886,776.635a1.6,1.6,0,0,1-.436-.054l.031-.113a2.159,2.159,0,0,0,1.094-.048c.13-.035.259-.072.389-.111a6.122,6.122,0,0,1,.718-.181,5.942,5.942,0,0,1,1.184-.035h.084a18.219,18.219,0,0,0,3.532-.158,1.321,1.321,0,0,0,.755-.3l.084.084a1.431,1.431,0,0,1-.82.337,18.32,18.32,0,0,1-3.555.158h-.086a5.859,5.859,0,0,0-1.168.035,5.752,5.752,0,0,0-.7.177c-.13.039-.261.078-.389.111A2.959,2.959,0,0,1,832.886,776.635Z" transform="translate(-687.154 -635.922)" fill="#575988" opacity="0.5"/><path d="M907.934,577.955l-.693.652-1.721-2.2q.272-.153.528-.333Z" transform="translate(-745.997 -475.218)" opacity="0.1"/><path d="M915.287,493l1.363,1.883v1.972a8.259,8.259,0,0,1,0,4.178l.066,1.824s-.656,1.676-.421,2.089a2.951,2.951,0,0,1-1.706,2.089,16.04,16.04,0,0,0-3.392,2.874,2.307,2.307,0,0,1-2.5,1l-1.737.736-2-2.56,2.707-1.472s.942-1.264,1.5-1.205l2.3-2.679s.058-.853.647-.853c0,0-1.089-.882-.707-1.412s.06-2.886.06-2.886Z" transform="translate(-745.546 -408.322)" fill="#e1e1e1"/><path d="M945,536.81s3.09-.058,3.472.736S945.933,536.367,945,536.81Z" transform="translate(-777.79 -443.549)" opacity="0.1"/><path d="M903.467,580.258a.813.813,0,0,1-.013.154,1.04,1.04,0,0,1-.974.884h-.055a1.04,1.04,0,0,1-1.04-1.04,1.014,1.014,0,0,1,.058-.337,1.783,1.783,0,0,1-.5-1.46,2.23,2.23,0,0,0,.732-.259,4.836,4.836,0,0,0,.512,1.046,1.1,1.1,0,0,1,.241-.029A1.042,1.042,0,0,1,903.467,580.258Z" transform="translate(-742.306 -476.933)" opacity="0.1"/><path d="M902.251,577s-.7.158-.7.284-.158,1.275.607,1.752.687-.658.687-.658S902.191,577.37,902.251,577Z" transform="translate(-742.792 -475.967)" fill="#575988"/><circle cx="1.04" cy="1.04" r="1.04" transform="translate(159.196 102.285)" fill="#e4aab4"/><circle cx="0.892" cy="0.892" r="0.892" transform="translate(159.344 102.433)" fill="#dce6f2"/><path d="M888.314,590.84a5.152,5.152,0,0,0,5.022.666v.884s-1.883,1.295-3.589.51S888.314,590.84,888.314,590.84Z" transform="translate(-732.128 -487.112)" opacity="0.1"/><path d="M888.314,589.63a5.146,5.146,0,0,0,5.022.666v.884s-1.883,1.295-3.589.51S888.314,589.63,888.314,589.63Z" transform="translate(-732.128 -486.138)" opacity="0.1"/><path d="M888.314,589.63a5.146,5.146,0,0,0,5.022.666v.884s-1.883,1.295-3.589.51S888.314,589.63,888.314,589.63Z" transform="translate(-732.128 -486.138)" fill="#444053"/><path d="M888.613,589.63a5.148,5.148,0,0,0,5.023.666v.884a4.084,4.084,0,0,1-3.59.51C888.338,590.905,888.613,589.63,888.613,589.63Z" transform="translate(-732.368 -486.138)" fill="#fff" opacity="0.9"/><path d="M852.91,757.94s2.944.541,3.374.658-.117.323-.117.323A12.039,12.039,0,0,1,852.91,757.94Z" transform="translate(-703.63 -621.676)" opacity="0.1"/><path d="M852.56,743.769c.049,0,2-.549,2.422-1.489" transform="translate(-703.348 -609.066)" opacity="0.1"/><path d="M867.19,692.1s.791,1.04,1.3,1.01S867.653,692.057,867.19,692.1Z" transform="translate(-715.13 -568.651)" opacity="0.1"/><path d="M869.44,701s.333.734.824.5" transform="translate(-716.942 -575.823)" opacity="0.1"/><path d="M879,617.966l2.087,5.5s.294-3.542-.327-4.6A1.836,1.836,0,0,0,879,617.966Z" transform="translate(-724.64 -508.949)" opacity="0.05"/><g transform="translate(156.949 65.232)" opacity="0.1"><path d="M903.883,393.3l-.018-.08-.335-.09.037.164A2.852,2.852,0,0,0,903.883,393.3Z" transform="translate(-901.344 -393.13)"/><path d="M898.867,396.037l.035-.031a.705.705,0,0,0,.195-.717.94.94,0,0,0-.168-.267,2.766,2.766,0,0,1-.483-.142c-.02.294.311.485.415.761a.584.584,0,0,1,.006.4Z" transform="translate(-897.249 -394.539)"/><path d="M899.485,413.154a1.948,1.948,0,0,1-.789-.974c-.166-.389-.269-.81-.438-1.2a3.7,3.7,0,0,0-.779-1.147.507.507,0,0,0-.208-.144.568.568,0,0,0-.428.119,1.969,1.969,0,0,1-.652.286.7.7,0,0,1-.654-.195.985.985,0,0,1-.105-.818,10.148,10.148,0,0,0,.308-1.826,1.789,1.789,0,0,0-.779-1.593,6.982,6.982,0,0,0-1.593-.347,2.049,2.049,0,0,1-.742-.38.36.36,0,0,1-.039-.037.969.969,0,0,0-.129.06c-.086.045-.177.127-.154.22a.236.236,0,0,0,.088.109,2.024,2.024,0,0,0,.74.38,6.592,6.592,0,0,1,1.593.347,1.8,1.8,0,0,1,.779,1.593,10.107,10.107,0,0,1-.308,1.826.982.982,0,0,0,.105.818.7.7,0,0,0,.654.195,1.948,1.948,0,0,0,.652-.284.563.563,0,0,1,.428-.121.514.514,0,0,1,.208.144,3.74,3.74,0,0,1,.779,1.147c.171.389.273.808.44,1.2a1.947,1.947,0,0,0,.779.974.963.963,0,0,0,1.168-.125.914.914,0,0,0,.175-.3A1,1,0,0,1,899.485,413.154Z" transform="translate(-892.301 -402.608)"/><path d="M937.84,434.14c.294-.372.681-.689.958-1.079.055-.078.105-.16.152-.241A9.553,9.553,0,0,0,937.84,434.14Z" transform="translate(-928.973 -425.092)"/></g></g></svg>